<svg width="24" height="24" viewBox="0 0 24 24" fill="none" xmlns="http://www.w3.org/2000/svg">
<g id="CaretRight">
<path id="Vector" opacity="0.2" d="M16.5 12L9 19.5V4.5L16.5 12Z" fill="#3DB2FF"/>
<path id="Vector_2" d="M17.0306 11.4695L9.53063 3.96948C9.42573 3.86447 9.29204 3.79294 9.14648 3.76396C9.00092 3.73497 8.85002 3.74982 8.71291 3.80664C8.57579 3.86345 8.45861 3.95967 8.37621 4.08312C8.29381 4.20656 8.24988 4.35168 8.25 4.5001V19.5001C8.24988 19.6485 8.29381 19.7936 8.37621 19.9171C8.45861 20.0405 8.57579 20.1368 8.71291 20.1936C8.85002 20.2504 9.00092 20.2652 9.14648 20.2363C9.29204 20.2073 9.42573 20.1357 9.53063 20.0307L17.0306 12.5307C17.1004 12.4611 17.1557 12.3784 17.1934 12.2873C17.2312 12.1963 17.2506 12.0987 17.2506 12.0001C17.2506 11.9015 17.2312 11.8039 17.1934 11.7129C17.1557 11.6218 17.1004 11.5391 17.0306 11.4695ZM9.75 17.6898V6.31041L15.4397 12.0001L9.75 17.6898Z" fill="#3DB2FF"/>
</g>
</svg>
