<svg width="28" height="28" viewBox="0 0 28 28" fill="none" xmlns="http://www.w3.org/2000/svg">
<g id="CaretRight">
<path id="Vector" opacity="0.2" d="M19.1427 14.0001L10.5713 22.5716V5.42871L19.1427 14.0001Z" fill="#0693F1"/>
<path id="Vector_2" d="M19.7494 13.3936L11.1779 4.82219C11.0581 4.70218 10.9053 4.62044 10.7389 4.58731C10.5725 4.55418 10.4001 4.57115 10.2434 4.63609C10.0867 4.70102 9.95277 4.81098 9.8586 4.95206C9.76442 5.09314 9.71422 5.25899 9.71436 5.42862V22.5715C9.71422 22.7411 9.76442 22.907 9.8586 23.048C9.95277 23.1891 10.0867 23.2991 10.2434 23.364C10.4001 23.4289 10.5725 23.4459 10.7389 23.4128C10.9053 23.3797 11.0581 23.2979 11.1779 23.1779L19.7494 14.6065C19.8291 14.5269 19.8923 14.4323 19.9354 14.3283C19.9785 14.2242 20.0007 14.1127 20.0007 14C20.0007 13.8874 19.9785 13.7759 19.9354 13.6718C19.8923 13.5678 19.8291 13.4732 19.7494 13.3936ZM11.4286 20.5025V7.49755L17.9311 14L11.4286 20.5025Z" fill="#0693F1"/>
</g>
</svg>
