<svg width="25" height="24" viewBox="0 0 25 24" fill="none" xmlns="http://www.w3.org/2000/svg">
<g id="CaretRight">
<path id="Vector" opacity="0.2" d="M17 12L9.5 19.5V4.5L17 12Z" fill="white"/>
<path id="Vector_2" d="M17.5306 11.4695L10.0306 3.96948C9.92573 3.86447 9.79204 3.79294 9.64648 3.76396C9.50092 3.73497 9.35002 3.74982 9.21291 3.80664C9.07579 3.86345 8.95861 3.95967 8.87621 4.08312C8.79381 4.20656 8.74988 4.35168 8.75 4.5001V19.5001C8.74988 19.6485 8.79381 19.7936 8.87621 19.9171C8.95861 20.0405 9.07579 20.1368 9.21291 20.1936C9.35002 20.2504 9.50092 20.2652 9.64648 20.2363C9.79204 20.2073 9.92573 20.1357 10.0306 20.0307L17.5306 12.5307C17.6004 12.4611 17.6557 12.3784 17.6934 12.2873C17.7312 12.1963 17.7506 12.0987 17.7506 12.0001C17.7506 11.9015 17.7312 11.8039 17.6934 11.7129C17.6557 11.6218 17.6004 11.5391 17.5306 11.4695ZM10.25 17.6898V6.31041L15.9397 12.0001L10.25 17.6898Z" fill="white"/>
</g>
</svg>
