<svg width="16" height="16" viewBox="0 0 16 16" fill="none" xmlns="http://www.w3.org/2000/svg">
<g id="GoogleLogo">
<path id="Vector" opacity="0.2" d="M13.5 8C13.5 9.0878 13.1774 10.1512 12.5731 11.0556C11.9687 11.9601 11.1098 12.6651 10.1048 13.0813C9.09977 13.4976 7.9939 13.6065 6.92701 13.3943C5.86011 13.1821 4.8801 12.6583 4.11092 11.8891C3.34173 11.1199 2.8179 10.1399 2.60568 9.073C2.39346 8.0061 2.50238 6.90023 2.91867 5.89524C3.33495 4.89025 4.0399 4.03126 4.94437 3.42692C5.84884 2.82257 6.9122 2.5 8 2.5C9.45869 2.5 10.8576 3.07946 11.8891 4.11091C12.9205 5.14236 13.5 6.54131 13.5 8Z" fill="#333333"/>
<path id="Vector_2" d="M14 8.00019C14.0001 9.41296 13.5016 10.7804 12.5924 11.8618C11.6833 12.9431 10.4217 13.669 9.02985 13.9115C7.63805 14.1539 6.20532 13.8975 4.98401 13.1874C3.76269 12.4772 2.83114 11.3589 2.35343 10.0293C1.87571 8.6998 1.88248 7.24432 2.37253 5.91926C2.86258 4.59421 3.80448 3.48458 5.03234 2.78581C6.2602 2.08704 7.69526 1.84395 9.08474 2.09937C10.4742 2.35479 11.729 3.09232 12.6281 4.18206C12.6728 4.23229 12.7068 4.29099 12.7283 4.35467C12.7497 4.41835 12.7581 4.4857 12.7529 4.55269C12.7477 4.61968 12.7291 4.68495 12.6982 4.74458C12.6672 4.80422 12.6245 4.857 12.5727 4.89978C12.5209 4.94256 12.461 4.97446 12.3966 4.99357C12.3322 5.01268 12.2646 5.01861 12.1978 5.011C12.131 5.0034 12.0665 4.98241 12.008 4.94931C11.9496 4.9162 11.8984 4.87165 11.8575 4.81831C11.1221 3.92664 10.1005 3.31727 8.9665 3.09388C7.83249 2.8705 6.6561 3.04688 5.63748 3.59303C4.61885 4.13918 3.82089 5.02137 3.37935 6.08951C2.93781 7.15765 2.87996 8.34578 3.21564 9.45176C3.55132 10.5577 4.2598 11.5133 5.22056 12.1558C6.18131 12.7983 7.33499 13.0882 8.48534 12.976C9.63569 12.8638 10.7117 12.3566 11.5302 11.5406C12.3487 10.7246 12.8593 9.65019 12.975 8.50019H8C7.86739 8.50019 7.74021 8.44751 7.64645 8.35374C7.55268 8.25997 7.5 8.1328 7.5 8.00019C7.5 7.86758 7.55268 7.7404 7.64645 7.64664C7.74021 7.55287 7.86739 7.50019 8 7.50019H13.5C13.6326 7.50019 13.7598 7.55287 13.8536 7.64664C13.9473 7.7404 14 7.86758 14 8.00019Z" fill="#333333"/>
</g>
</svg>
