<svg width="169" height="179" viewBox="0 0 169 179" fill="none" xmlns="http://www.w3.org/2000/svg">
<g id="Ilustration - Home Page">
<g id="background-simple">
<path id="Vector" d="M24.0375 37.7447L25.0264 36.1576C33.3762 22.7806 48.4381 14.7144 64.3098 15.691C66.3548 15.8128 68.3876 16.0839 70.391 16.502C84.8308 19.5149 97.3958 30.1537 102.609 43.7835C105.674 51.7975 106.529 61.0235 112.341 67.385C119.908 75.6693 132.75 75.9265 144.04 75.5821C155.33 75.2376 168.204 75.5298 175.712 83.8446C180.428 89.0506 181.923 96.4498 181.529 103.422C180.522 121.878 167.326 138.381 150.542 146.587C133.757 154.793 114.01 155.525 95.6328 151.92C69.9032 146.866 45.4266 132.979 30.7182 111.54C16.0099 90.1014 12.2825 60.8884 24.0375 37.7447Z" fill="#F5F5F5"/>
</g>
<g id="Elements">
<path id="Vector_2" d="M176.222 30.0532C176.204 30.0906 176.19 30.1302 176.182 30.1709L176.083 30.5198C176.034 30.7121 175.973 30.9013 175.9 31.0866C175.819 31.3046 175.734 31.5618 175.605 31.8365L175.408 32.2725L175.153 32.7434C175.065 32.9165 174.967 33.0839 174.857 33.2449C174.746 33.4105 174.647 33.5937 174.513 33.7681C173.256 35.5593 171.496 36.9596 169.443 37.8012C168.82 38.0552 168.175 38.2523 167.514 38.3898C166.812 38.5256 166.103 38.6217 165.389 38.6776C163.926 38.8171 162.342 38.8956 160.825 39.4886C159.293 40.1504 157.934 41.1417 156.851 42.3881C155.705 43.5724 154.778 44.9414 154.113 46.4343C153.812 47.155 153.628 47.917 153.567 48.6929C153.515 49.4341 153.563 50.1788 153.71 50.9078C154.009 52.244 154.413 53.5559 154.918 54.832C155.349 55.9389 155.669 57.0836 155.876 58.2503C156.043 59.2126 156.005 60.1982 155.764 61.1455C155.582 61.8601 155.251 62.5308 154.793 63.1163C154.503 63.4877 154.149 63.8065 153.746 64.058C153.473 64.2281 153.298 64.2935 153.298 64.3022C153.454 64.2423 153.603 64.1693 153.746 64.0842C154.158 63.8385 154.522 63.5225 154.82 63.1511C155.294 62.5657 155.637 61.8898 155.826 61.1673C156.08 60.2089 156.127 59.2099 155.965 58.2329C155.761 57.0596 155.443 55.9078 155.017 54.7927C154.52 53.5155 154.122 52.2038 153.826 50.8686C153.687 50.1503 153.642 49.4178 153.692 48.6885C153.752 47.9285 153.935 47.1824 154.233 46.4779C154.895 45.0005 155.812 43.645 156.945 42.4709C158.014 41.2417 159.354 40.2639 160.865 39.6107C162.346 39.0221 163.917 38.9436 165.384 38.7997C166.102 38.7382 166.816 38.6392 167.523 38.5032C168.197 38.3714 168.856 38.1788 169.492 37.9277C171.562 37.0724 173.331 35.6463 174.58 33.8248C174.714 33.6503 174.817 33.4672 174.925 33.2972C175.031 33.1323 175.128 32.962 175.215 32.787L175.466 32.3161L175.658 31.8801C175.769 31.6328 175.864 31.3795 175.945 31.1215C176.012 30.9346 176.067 30.7438 176.11 30.5503C176.146 30.3977 176.177 30.2799 176.195 30.1971C176.208 30.1499 176.217 30.1018 176.222 30.0532Z" fill="#455A64"/>
<path id="Vector_3" d="M167.125 25.4316L167.027 25.5188L166.75 25.7805C166.629 25.8982 166.495 26.0551 166.302 26.2165C166.11 26.3778 165.962 26.6176 165.783 26.8792C165.331 27.507 164.96 28.1864 164.678 28.9023C164.295 29.8486 164.067 30.8476 164.002 31.8629C163.972 32.4523 163.994 33.0431 164.069 33.6287C164.161 34.2631 164.301 34.8899 164.49 35.5036C164.861 36.7768 165.385 38.0848 165.779 39.5193C165.972 40.2508 166.082 41.001 166.105 41.7561C166.123 42.5434 166.04 43.3299 165.859 44.0975C165.481 45.7252 164.725 47.2468 163.649 48.5448C162.569 49.8317 161.234 50.8934 159.724 51.6667C158.323 52.3966 156.813 52.9085 155.25 53.184C153.755 53.4543 152.305 53.5241 150.963 53.7247C149.706 53.8709 148.485 54.231 147.356 54.7885C145.745 55.6683 144.484 57.0504 143.776 58.7127C143.585 59.1593 143.435 59.6219 143.329 60.0948C143.302 60.2562 143.284 60.3783 143.266 60.4698C143.263 60.5119 143.263 60.5542 143.266 60.5963C143.266 60.5963 143.266 60.5527 143.298 60.4698C143.329 60.387 143.342 60.2605 143.374 60.1036C143.484 59.636 143.634 59.1781 143.821 58.7345C144.135 58.0388 144.546 57.3888 145.043 56.8029C145.701 56.0269 146.506 55.3815 147.414 54.9019C148.537 54.3564 149.748 54.0067 150.994 53.8686C152.337 53.6723 153.782 53.6069 155.29 53.341C156.868 53.0621 158.392 52.5473 159.809 51.8149C161.338 51.0332 162.689 49.9596 163.783 48.6582C164.866 47.3461 165.631 45.8123 166.02 44.1716C166.197 43.3916 166.278 42.5939 166.262 41.7953C166.238 41.0299 166.127 40.2696 165.931 39.528C165.55 38.0804 165 36.7724 164.624 35.508C164.427 34.9021 164.278 34.2827 164.177 33.6549C164.097 33.077 164.071 32.4932 164.101 31.9108C164.203 30.1381 164.799 28.426 165.823 26.9577C165.998 26.6917 166.181 26.4824 166.329 26.2862C166.477 26.09 166.624 25.9461 166.741 25.8502L167.005 25.5755C167.049 25.5312 167.09 25.4831 167.125 25.4316Z" fill="#455A64"/>
<path id="Vector_4" d="M144.89 56.6763C144.996 56.7904 145.113 56.894 145.239 56.9858C145.472 57.1821 145.817 57.4524 146.251 57.775C147.377 58.6224 148.548 59.4113 149.759 60.1382C150.971 60.8648 152.221 61.5299 153.504 62.1308C153.996 62.3619 154.399 62.5407 154.677 62.654C154.819 62.7247 154.969 62.7802 155.124 62.8197C154.991 62.7376 154.852 62.6647 154.708 62.6017L153.553 62.0393C152.582 61.5596 151.258 60.862 149.844 60.0118C148.43 59.1616 147.195 58.32 146.318 57.6922L145.284 56.9422C145.16 56.8437 145.029 56.7548 144.89 56.6763Z" fill="#455A64"/>
<path id="Vector_5" d="M147.293 54.8452C147.404 54.9249 147.522 54.9936 147.647 55.0501L148.622 55.5646C149.446 56.0007 150.573 56.6198 151.795 57.3479C153.017 58.0761 154.09 58.7824 154.86 59.3013L155.755 59.9204C155.864 59.9998 155.98 60.0712 156.1 60.1341C156.005 60.0376 155.902 59.95 155.791 59.8725C155.585 59.7111 155.281 59.4888 154.896 59.2184C154.14 58.6734 153.066 57.9584 151.844 57.2259C150.623 56.4933 149.482 55.8873 148.645 55.4818C148.224 55.2725 147.884 55.1112 147.642 55.0065C147.531 54.9437 147.414 54.8897 147.293 54.8452Z" fill="#455A64"/>
<path id="Vector_6" d="M150.739 54.1387C150.955 54.3223 151.187 54.4871 151.433 54.6314C151.88 54.9148 152.484 55.2985 153.173 55.704C153.862 56.1095 154.493 56.4539 154.963 56.6981C155.208 56.8404 155.466 56.9615 155.733 57.06C155.507 56.8957 155.267 56.7499 155.017 56.624L153.254 55.595L151.491 54.5616C151.254 54.3985 151.002 54.2569 150.739 54.1387Z" fill="#455A64"/>
<path id="Vector_7" d="M153.952 50.4326C154.111 50.5752 154.287 50.6996 154.475 50.8032L155.768 51.6491L157.053 52.5211C157.222 52.6521 157.405 52.7646 157.599 52.8569C157.459 52.6904 157.296 52.5437 157.115 52.4209C156.802 52.1767 156.359 51.8584 155.853 51.5227C155.348 51.1869 154.878 50.9035 154.511 50.7117C154.338 50.5957 154.15 50.5019 153.952 50.4326Z" fill="#455A64"/>
<path id="Vector_8" d="M154.207 47.1279C154.207 47.1497 154.587 47.3503 155.2 47.6947C155.813 48.0392 156.65 48.5406 157.532 49.1423C158.413 49.744 159.183 50.3457 159.724 50.7905C160.01 51.0438 160.308 51.2825 160.619 51.5055C160.558 51.4237 160.489 51.3478 160.413 51.2788C160.275 51.1393 160.064 50.9474 159.8 50.712C158.422 49.4993 156.897 48.4553 155.258 47.6032C154.945 47.4419 154.686 47.3198 154.507 47.2369C154.412 47.1879 154.311 47.1512 154.207 47.1279Z" fill="#455A64"/>
<path id="Vector_9" d="M155.885 44.5638C155.862 44.5987 157.433 45.7018 159.393 47.036C161.353 48.3702 162.973 49.4167 162.973 49.3862C162.973 49.3556 161.429 48.2438 159.469 46.914C157.509 45.5841 155.912 44.5289 155.885 44.5638Z" fill="#455A64"/>
<path id="Vector_10" d="M157.223 41.6733C157.316 41.7564 157.418 41.8295 157.527 41.8913C157.751 42.0396 158.033 42.2271 158.373 42.4451C159.089 42.9116 160.073 43.5656 161.143 44.3069C162.212 45.0481 163.161 45.7457 163.828 46.2515L164.642 46.8532C164.737 46.9318 164.841 47.0005 164.951 47.0581C164.87 46.9638 164.778 46.8789 164.678 46.8052C164.499 46.6526 164.23 46.4346 163.895 46.1687C163.223 45.6411 162.284 44.9304 161.21 44.1891C160.136 43.4479 159.143 42.8026 158.413 42.3579C158.046 42.1355 157.746 41.9611 157.518 41.8434C157.426 41.777 157.327 41.72 157.223 41.6733Z" fill="#455A64"/>
<path id="Vector_11" d="M159.984 40.0733C159.957 40.1038 161.291 41.0456 162.955 42.1749C164.62 43.3041 165.994 44.1849 166.021 44.1544C166.047 44.1238 164.71 43.1777 163.045 42.0528C161.38 40.9279 160.007 40.0384 159.984 40.0733Z" fill="#455A64"/>
<path id="Vector_12" d="M162.879 38.4595C163.353 38.9272 163.865 39.3574 164.409 39.7457C164.92 40.1751 165.463 40.5671 166.034 40.9186C165.558 40.4461 165.046 40.0089 164.503 39.6106C163.991 39.1887 163.449 38.804 162.879 38.4595Z" fill="#455A64"/>
<path id="Vector_13" d="M164.83 34.4092C165.029 34.624 165.248 34.821 165.483 34.9978C165.9 35.3423 166.49 35.8088 167.161 36.3058C167.833 36.8029 168.455 37.2128 168.915 37.5049C169.155 37.6743 169.412 37.8203 169.681 37.9409C169.459 37.7477 169.223 37.5713 168.974 37.4133C168.526 37.0994 167.918 36.6677 167.251 36.1838C166.584 35.6998 165.985 35.2463 165.551 34.9193C165.325 34.7308 165.084 34.5602 164.83 34.4092Z" fill="#455A64"/>
<path id="Vector_14" d="M163.989 31.6538C164.08 31.7395 164.181 31.8155 164.289 31.8805C164.481 32.0201 164.772 32.2119 165.13 32.443C165.85 32.9095 166.861 33.533 168.003 34.1871C169.144 34.8411 170.204 35.373 170.978 35.748C171.363 35.9355 171.681 36.0837 171.9 36.184C172.011 36.2432 172.128 36.29 172.249 36.3235C172.148 36.2514 172.04 36.1887 171.927 36.136L171.032 35.6608C170.271 35.264 169.242 34.7059 168.083 34.0606C166.924 33.4153 165.926 32.8136 165.192 32.3689L164.324 31.8457C164.22 31.7694 164.108 31.705 163.989 31.6538Z" fill="#455A64"/>
<path id="Vector_15" d="M165.331 28.7104C165.433 28.7991 165.542 28.8793 165.658 28.9503C165.873 29.0985 166.186 29.3078 166.58 29.565C167.363 30.0708 168.455 30.7597 169.676 31.4966C170.898 32.2335 172.012 32.8788 172.809 33.3322C173.216 33.5589 173.547 33.7421 173.78 33.8641C173.897 33.9316 174.02 33.9899 174.146 34.0386C174.042 33.9528 173.93 33.8769 173.811 33.8118L172.862 33.2406L169.73 31.3701L166.598 29.4778L165.649 28.9023C165.55 28.8287 165.443 28.7645 165.331 28.7104Z" fill="#455A64"/>
<path id="Vector_16" d="M47.5925 115.63C47.6149 115.652 47.946 115.329 48.5904 114.793C48.9125 114.527 49.3108 114.204 49.7941 113.86C50.3392 113.469 50.9135 113.12 51.5123 112.813C51.8579 112.64 52.217 112.495 52.5863 112.377C52.9734 112.239 53.3823 112.169 53.7945 112.168C53.998 112.168 54.1988 112.214 54.3806 112.303C54.5587 112.393 54.7006 112.539 54.7834 112.717C54.8701 112.912 54.9114 113.124 54.9042 113.336C54.9003 113.566 54.8703 113.794 54.8147 114.017C54.6948 114.489 54.5207 114.947 54.2956 115.381C54.0599 115.843 53.7954 116.29 53.5036 116.72C52.2503 118.524 50.6811 120.098 48.8678 121.372C48.4393 121.671 47.9908 121.942 47.5254 122.183C47.0861 122.417 46.6207 122.602 46.1382 122.733C45.9119 122.794 45.6793 122.83 45.4447 122.842C45.2279 122.854 45.011 122.82 44.8092 122.741C44.6202 122.668 44.4623 122.534 44.3618 122.362C44.2662 122.187 44.2126 121.993 44.2052 121.795C44.192 121.393 44.2526 120.991 44.3841 120.609C44.5059 120.246 44.6555 119.891 44.8316 119.55C45.1302 118.958 45.4727 118.388 45.8563 117.845C46.1964 117.365 46.5096 116.973 46.7781 116.646C47.3061 116.005 47.6283 115.669 47.6059 115.647C47.5836 115.625 47.5075 115.713 47.3419 115.865C47.1764 116.018 46.9482 116.245 46.6663 116.554C46.3196 116.929 45.9925 117.32 45.6863 117.727C45.2764 118.268 44.9113 118.839 44.5945 119.436C44.4124 119.789 44.2554 120.153 44.1246 120.526C43.9744 120.946 43.9032 121.39 43.9143 121.834C43.919 122.08 43.9834 122.32 44.1022 122.536C44.2308 122.768 44.4358 122.951 44.684 123.055C44.9302 123.155 45.196 123.202 45.4626 123.19C45.724 123.182 45.9837 123.146 46.2367 123.081C46.7447 122.946 47.2355 122.756 47.6999 122.515C48.185 122.255 48.6515 121.964 49.096 121.642C50.9549 120.35 52.5575 118.74 53.8258 116.89C54.1273 116.449 54.3979 115.989 54.6357 115.512C54.8677 115.052 55.0463 114.568 55.1682 114.069C55.2291 113.822 55.2591 113.569 55.2577 113.315C55.2649 113.054 55.2097 112.796 55.0966 112.56C54.9818 112.321 54.788 112.126 54.5462 112.007C54.3205 111.899 54.0724 111.844 53.8213 111.845C53.3714 111.85 52.9259 111.932 52.5057 112.089C52.1266 112.226 51.7587 112.391 51.405 112.582C50.8026 112.907 50.2279 113.279 49.6867 113.694C49.2079 114.06 48.8186 114.396 48.5098 114.684C48.2011 114.971 47.9729 115.203 47.8252 115.364C47.6775 115.525 47.5836 115.621 47.5925 115.63Z" fill="#455A64"/>
<path id="Vector_17" d="M51.8837 116.677C51.8568 116.677 51.9866 117.113 52.1566 117.889C52.2416 118.281 52.3356 118.761 52.4117 119.319C52.4985 119.95 52.5344 120.587 52.5191 121.224C52.5104 121.592 52.4715 121.958 52.4027 122.319C52.3377 122.702 52.2029 123.071 52.0045 123.409C51.9032 123.574 51.7657 123.715 51.6018 123.823C51.4383 123.926 51.2461 123.978 51.0514 123.971C50.8384 123.965 50.6293 123.915 50.4383 123.823C50.2358 123.722 50.0465 123.597 49.8745 123.452C49.5087 123.144 49.1799 122.796 48.8946 122.415C48.5928 122.013 48.3192 121.592 48.0757 121.155C47.0591 119.295 46.3994 117.271 46.1292 115.181C46.0709 114.688 46.0455 114.191 46.0531 113.694C46.0604 113.223 46.1219 112.753 46.2366 112.295C46.2948 112.081 46.3758 111.873 46.4782 111.676C46.5729 111.493 46.7073 111.332 46.872 111.205C47.0259 111.087 47.2138 111.02 47.409 111.013C47.6061 111.009 47.8017 111.048 47.9817 111.126C48.3429 111.29 48.6716 111.514 48.9527 111.789C49.2222 112.047 49.4706 112.326 49.6955 112.622C50.0911 113.13 50.4443 113.668 50.7516 114.231C51.0201 114.728 51.2259 115.172 51.387 115.539C51.7092 116.276 51.8568 116.694 51.8837 116.685C51.8799 116.576 51.8572 116.469 51.8165 116.367C51.7584 116.162 51.6644 115.866 51.5257 115.495C51.387 115.124 51.1946 114.662 50.9395 114.148C50.6498 113.561 50.31 113 49.9238 112.469C49.6987 112.157 49.4456 111.865 49.1675 111.597C48.8667 111.288 48.5103 111.035 48.116 110.851C47.8954 110.754 47.6556 110.705 47.4134 110.708C47.1517 110.714 46.8985 110.799 46.6885 110.952C46.4847 111.106 46.3169 111.301 46.1963 111.523C46.0771 111.741 45.984 111.973 45.9189 112.212C45.7916 112.694 45.7225 113.188 45.7131 113.686C45.6977 114.2 45.7201 114.714 45.7802 115.225C46.0411 117.364 46.7168 119.435 47.7714 121.329C48.0242 121.784 48.3098 122.221 48.6261 122.637C48.9287 123.037 49.2786 123.402 49.6687 123.723C49.8622 123.881 50.074 124.017 50.2996 124.128C50.5297 124.245 50.7834 124.31 51.0424 124.32C51.3027 124.326 51.5588 124.255 51.7763 124.115C51.9759 123.979 52.1437 123.804 52.2685 123.601C52.4805 123.229 52.6214 122.822 52.6846 122.402C52.7514 122.026 52.7844 121.645 52.7831 121.264C52.7861 120.612 52.7307 119.961 52.6175 119.319C52.5368 118.837 52.4308 118.36 52.2998 117.889C52.1924 117.501 52.0895 117.204 52.0179 117.017C51.995 116.896 51.9495 116.781 51.8837 116.677Z" fill="#455A64"/>
<path id="Vector_18" d="M50.416 114.667C50.416 114.697 50.8635 114.81 51.6197 115.081C52.0045 115.216 52.4699 115.39 53.0024 115.621C53.599 115.882 54.1735 116.188 54.7207 116.537C55.0382 116.735 55.3377 116.96 55.6156 117.209C55.9167 117.462 56.167 117.768 56.3539 118.111C56.4454 118.281 56.4973 118.469 56.5061 118.66C56.51 118.852 56.4521 119.039 56.3405 119.197C56.2248 119.364 56.0718 119.504 55.893 119.607C55.6981 119.72 55.4911 119.812 55.2755 119.881C54.8125 120.019 54.3353 120.107 53.8526 120.143C53.343 120.176 52.8318 120.176 52.3222 120.143C51.2453 120.081 50.1769 119.919 49.1318 119.659C48.0844 119.404 47.0641 119.054 46.0845 118.613C45.6217 118.401 45.1733 118.161 44.7421 117.893C44.3339 117.646 43.957 117.354 43.6189 117.021C43.4598 116.862 43.3215 116.685 43.2072 116.493C43.0962 116.32 43.0259 116.125 43.0014 115.922C42.981 115.734 43.02 115.544 43.1133 115.377C43.214 115.206 43.3513 115.057 43.516 114.941C43.8503 114.733 44.2201 114.586 44.6078 114.505C44.9738 114.417 45.3464 114.357 45.722 114.326C46.3743 114.277 47.0296 114.277 47.682 114.326C48.2592 114.37 48.7559 114.431 49.1631 114.488C49.9685 114.61 50.4115 114.71 50.4205 114.68C50.3224 114.628 50.2168 114.591 50.1072 114.571C49.9014 114.51 49.5927 114.431 49.1855 114.348C48.7783 114.265 48.2905 114.187 47.6999 114.126C47.0355 114.057 46.3665 114.043 45.6997 114.082C45.3092 114.105 44.9215 114.161 44.5407 114.248C44.112 114.332 43.7036 114.495 43.337 114.728C43.1348 114.858 42.9651 115.031 42.8403 115.233C42.7077 115.453 42.6497 115.708 42.6748 115.962C42.6977 116.213 42.7788 116.456 42.9119 116.672C43.0378 116.884 43.1879 117.082 43.3594 117.261C43.7137 117.622 44.1102 117.941 44.5407 118.211C44.9822 118.493 45.4427 118.745 45.9189 118.966C46.9249 119.422 47.9739 119.783 49.0512 120.043C50.1196 120.308 51.2122 120.47 52.3133 120.527C52.8398 120.555 53.3677 120.546 53.8928 120.5C54.4026 120.461 54.9058 120.363 55.3919 120.208C55.6333 120.132 55.8646 120.028 56.081 119.899C56.301 119.767 56.4901 119.592 56.6358 119.384C56.7779 119.172 56.8498 118.922 56.8417 118.669C56.8304 118.431 56.7647 118.199 56.6493 117.989C56.4381 117.617 56.1591 117.286 55.8259 117.012C55.5304 116.761 55.2147 116.534 54.8817 116.332C54.3111 115.993 53.7124 115.702 53.0919 115.46C52.6278 115.274 52.1544 115.111 51.6734 114.972C51.2796 114.858 50.9664 114.784 50.7561 114.741C50.6476 114.698 50.5327 114.673 50.416 114.667Z" fill="#455A64"/>
<path id="Vector_19" d="M48.1608 117.183C48.1033 117.407 48.1153 117.643 48.1953 117.86C48.2753 118.078 48.4197 118.267 48.6103 118.405C48.8009 118.542 49.029 118.622 49.2659 118.633C49.5028 118.644 49.7378 118.587 49.9412 118.468C50.1446 118.349 50.3072 118.174 50.4085 117.965C50.5098 117.756 50.5453 117.523 50.5104 117.294C50.4755 117.065 50.3718 116.852 50.2124 116.681C50.0531 116.51 49.8452 116.388 49.6151 116.332C49.3066 116.258 48.9806 116.306 48.7082 116.465C48.4358 116.625 48.239 116.882 48.1608 117.183Z" fill="#455A64"/>
<path id="Vector_20" d="M23.7155 97.1647L23.8497 97.1037L24.239 96.9118L25.738 96.1532L31.2464 93.3321H31.1972L48.1652 99.65L48.3174 99.7067L48.2726 99.5541L47.7536 97.7272C46.5678 93.5589 45.4446 89.6129 44.4602 86.1423V86.1161L35.0633 79.2532L32.3785 77.3173L31.667 76.8072L31.4835 76.6807C31.4448 76.6487 31.4224 76.6357 31.4164 76.6415L31.4746 76.6894L31.6536 76.829L32.3516 77.3522L35.0007 79.3186L44.3707 86.2295L44.3438 86.1902C45.3283 89.6783 46.4425 93.6025 47.6238 97.7839C47.8028 98.4074 47.9773 99.0309 48.1429 99.6108L48.2503 99.5148L31.2464 93.2406H31.2195L25.738 96.1052L24.2569 96.8857L23.8721 97.095L23.7155 97.1647Z" fill="#0068AD"/>
<path id="Vector_21" d="M45.9862 99.4495L47.002 99.7416L47.3286 100.723L47.9283 99.8724H48.9888L48.3444 99.0527L48.6711 98.0717L47.6732 98.4161L46.8185 97.8101L46.8454 98.8434L45.9862 99.4495Z" fill="#0068AD"/>
<path id="Vector_22" d="M43.0554 85.824L43.6953 86.0507L43.8698 86.696L44.2905 86.1728L44.9751 86.212L44.5903 85.6583L44.8408 85.0391L44.1831 85.2223L43.6551 84.7993L43.6327 85.4664L43.0554 85.824Z" fill="#0068AD"/>
<path id="Vector_23" d="M30.2083 76.2185L30.6737 76.903L30.3649 77.6617L31.1749 77.4393L31.8192 77.9626L31.855 77.1429L32.562 76.7068L31.7745 76.4234L31.5686 75.6299L31.0451 76.2708L30.2083 76.2185Z" fill="#0068AD"/>
<path id="Vector_24" d="M22.6868 96.3015L23.1566 96.9861L22.8434 97.7447L23.6533 97.5224L24.3021 98.0456L24.3334 97.2259L25.0449 96.7898L24.2574 96.5064L24.0471 95.7129L23.528 96.3538L22.6868 96.3015Z" fill="#0068AD"/>
<path id="Vector_25" d="M30.5795 92.9399L30.8793 93.3759L30.6779 93.8599L31.197 93.716L31.6087 94.0517L31.6266 93.5285L32.083 93.2495L31.5774 93.0663L31.4476 92.5605L31.112 92.9748L30.5795 92.9399Z" fill="#0068AD"/>
<path id="Vector_26" d="M74.3919 23.6385C73.6276 19.0755 76.8043 14.7726 81.4872 14.0278C86.1702 13.2831 90.5861 16.3784 91.3504 20.9414C92.1148 25.5045 88.9381 29.8074 84.2551 30.5522C79.5722 31.2969 75.1563 28.2016 74.3919 23.6385Z" fill="#0068AD"/>
<g id="Group" opacity="0.3">
<path id="Vector_27" opacity="0.3" d="M83.9986 24.9082C83.9986 25.1781 84.0808 25.442 84.2347 25.6664C84.3886 25.8908 84.6073 26.0657 84.8632 26.169C85.1192 26.2723 85.4008 26.2993 85.6725 26.2467C85.9441 26.194 86.1937 26.0641 86.3896 25.8732C86.5855 25.6823 86.7189 25.4392 86.7729 25.1744C86.8269 24.9097 86.7992 24.6353 86.6932 24.3859C86.5872 24.1366 86.4077 23.9234 86.1773 23.7735C85.947 23.6235 85.6762 23.5435 85.3992 23.5435C85.0278 23.5435 84.6715 23.6872 84.4089 23.9432C84.1462 24.1991 83.9986 24.5462 83.9986 24.9082Z" fill="white"/>
</g>
<g id="Group_2" opacity="0.3">
<path id="Vector_28" opacity="0.3" d="M85.9679 20.9669C85.9679 21.1238 86.0156 21.2773 86.1051 21.4078C86.1946 21.5383 86.3218 21.64 86.4706 21.7C86.6194 21.7601 86.7832 21.7758 86.9412 21.7452C87.0991 21.7146 87.2442 21.639 87.3581 21.528C87.472 21.417 87.5496 21.2756 87.581 21.1217C87.6125 20.9678 87.5963 20.8082 87.5347 20.6632C87.473 20.5182 87.3687 20.3943 87.2347 20.3071C87.1008 20.2199 86.9434 20.1733 86.7823 20.1733C86.5663 20.1733 86.3591 20.2569 86.2064 20.4058C86.0537 20.5546 85.9679 20.7564 85.9679 20.9669Z" fill="white"/>
</g>
<path id="Vector_29" d="M91.1991 24.3328C91.1588 24.4767 98.551 31.3876 96.6448 32.8613C94.7386 34.335 86.7244 30.5548 79.8915 25.1787C73.0586 19.8026 66.8209 13.2711 68.5302 11.5445C70.2396 9.81789 78.7728 14.9323 78.7728 14.9323L77.7347 15.5646C77.7347 15.5646 72.5754 12.3381 70.9421 13.5894C69.3088 14.8408 73.9625 19.7372 80.5314 24.4113C87.1002 29.0854 93.4499 32.3642 94.4343 31.0824C95.4187 29.8005 90.7695 25.5319 90.7695 25.5319L91.1991 24.3328Z" fill="#0068AD"/>
<g id="Group_3" opacity="0.3">
<path id="Vector_30" opacity="0.3" d="M91.1986 24.3328C91.1583 24.4767 98.5505 31.3876 96.6443 32.8613C94.7381 34.335 86.7239 30.5548 79.891 25.1787C73.0581 19.8026 66.8204 13.2711 68.5297 11.5445C70.2391 9.81789 78.7723 14.9323 78.7723 14.9323L77.7342 15.5646C77.7342 15.5646 72.5749 12.3381 70.9416 13.5894C69.3083 14.8408 73.962 19.7372 80.5309 24.4113C87.0998 29.0854 93.4494 32.3642 94.4338 31.0824C95.4182 29.8005 90.769 25.5319 90.769 25.5319L91.1986 24.3328Z" fill="black"/>
</g>
<g id="Group_4" opacity="0.3">
<path id="Vector_31" opacity="0.3" d="M87.5781 16.3973C87.511 16.4801 88.0927 16.9598 88.7505 17.9277C89.6246 19.1684 90.107 20.6313 90.138 22.136C90.169 23.6406 89.7473 25.1212 88.925 26.3951C88.303 27.3849 87.7437 27.8907 87.8153 27.9691C87.8868 28.0476 88.5491 27.6378 89.3143 26.6611C89.7572 26.0801 90.1086 25.4379 90.3569 24.7557C90.9916 23.0596 90.9533 21.1936 90.2495 19.5235C89.9742 18.8519 89.5971 18.2244 89.1308 17.6617C88.3433 16.7025 87.6363 16.3406 87.5781 16.3973Z" fill="white"/>
</g>
<path id="Vector_32" d="M69.8673 29.6741C69.844 28.7127 69.5286 27.7797 68.9611 26.993C68.3936 26.2064 67.5994 25.6013 66.679 25.2545C65.7585 24.9077 64.7532 24.8346 63.7901 25.0445C62.8271 25.2544 61.9495 25.7379 61.2685 26.4339C60.5875 27.1298 60.1336 28.0069 59.9641 28.9542C59.7947 29.9015 59.9174 30.8765 60.3167 31.7559C60.716 32.6352 61.3739 33.3795 62.2074 33.8945C63.0408 34.4094 64.0122 34.672 64.9988 34.649C66.3214 34.6181 67.5772 34.0767 68.4902 33.1438C69.4031 32.2108 69.8985 30.9628 69.8673 29.6741Z" fill="#0068AD"/>
<g id="Group_5" opacity="0.4">
<path id="Vector_33" opacity="0.4" d="M63.2541 27.9301C63.2505 27.773 63.1991 27.6205 63.1065 27.4919C63.0138 27.3633 62.8841 27.2644 62.7337 27.2077C62.5833 27.1511 62.4191 27.1391 62.2617 27.1735C62.1044 27.2079 61.9611 27.287 61.8499 27.4008C61.7388 27.5146 61.6648 27.658 61.6374 27.8128C61.6099 27.9677 61.6303 28.1269 61.6958 28.2705C61.7614 28.414 61.8692 28.5354 62.0056 28.6192C62.142 28.7029 62.3009 28.7454 62.462 28.7411C62.5688 28.7388 62.674 28.716 62.7717 28.674C62.8694 28.632 62.9576 28.5715 63.0312 28.4961C63.1048 28.4208 63.1624 28.3319 63.2006 28.2348C63.2389 28.1377 63.2571 28.0341 63.2541 27.9301Z" fill="black"/>
</g>
<g id="Group_6" opacity="0.4">
<path id="Vector_34" opacity="0.4" d="M61.6254 29.7789C61.6226 29.687 61.5917 29.5981 61.5367 29.5234C61.4817 29.4487 61.4051 29.3916 61.3167 29.3596C61.2283 29.3275 61.1321 29.3219 61.0403 29.3434C60.9486 29.3649 60.8655 29.4126 60.8018 29.4803C60.738 29.548 60.6964 29.6328 60.6823 29.7237C60.6682 29.8146 60.6822 29.9075 60.7226 29.9906C60.763 30.0736 60.8279 30.1431 60.909 30.1901C60.9901 30.237 61.0837 30.2594 61.1779 30.2542C61.301 30.2464 61.4161 30.1926 61.4995 30.104C61.5829 30.0155 61.628 29.8991 61.6254 29.7789Z" fill="black"/>
</g>
<g id="Group_7" opacity="0.4">
<path id="Vector_35" opacity="0.4" d="M62.2652 31.1958C62.2185 31.1969 62.1741 31.2158 62.1415 31.2484C62.1089 31.281 62.0907 31.3247 62.0907 31.3702C62.0913 31.3925 62.0963 31.4145 62.1057 31.435C62.115 31.4554 62.1283 31.4738 62.1449 31.4892C62.1616 31.5046 62.1811 31.5166 62.2025 31.5246C62.2239 31.5326 62.2467 31.5365 62.2697 31.5359C62.2928 31.5359 62.3156 31.5314 62.3369 31.5225C62.3581 31.5136 62.3773 31.5006 62.3932 31.4843C62.4091 31.468 62.4214 31.4487 62.4294 31.4276C62.4374 31.4065 62.4409 31.384 62.4397 31.3615C62.4385 31.3171 62.4196 31.275 62.387 31.2441C62.3544 31.2131 62.3107 31.1958 62.2652 31.1958Z" fill="black"/>
</g>
<path id="Vector_36" d="M49.2662 65.9419C49.311 65.9419 49.3423 59.7854 49.3423 52.1943C49.3423 44.6033 49.311 38.4468 49.2662 38.4468C49.2215 38.4468 49.1901 44.599 49.1901 52.1943C49.1901 59.7897 49.226 65.9419 49.2662 65.9419Z" fill="#263238"/>
<path id="Vector_37" d="M48.4252 38.6822C48.7849 38.1743 49.105 37.6409 49.3828 37.0863H49.2485V37.1212C49.4794 37.7106 49.7531 38.2832 50.0674 38.8348C49.891 38.2275 49.6635 37.6354 49.3872 37.0645V37.0297L49.3246 36.8901L49.253 37.0209C48.9318 37.5522 48.655 38.1077 48.4252 38.6822Z" fill="#263238"/>
<path id="Vector_38" d="M49.4227 35.1984C49.4495 35.2289 49.6822 35.0807 49.8701 34.806C50.0581 34.5313 50.1028 34.2653 50.0626 34.2566C50.0223 34.2479 49.9149 34.4746 49.7449 34.7275C49.5748 34.9804 49.3958 35.1679 49.4227 35.1984Z" fill="#263238"/>
<path id="Vector_39" d="M49.8657 35.992C49.7809 35.654 49.661 35.3253 49.5078 35.011C49.4058 34.6779 49.2678 34.3564 49.0961 34.0518C49.1235 34.4023 49.216 34.745 49.369 35.0633C49.4746 35.4 49.643 35.7148 49.8657 35.992Z" fill="#263238"/>
<path id="Vector_40" d="M51.2886 42.0656C51.1865 41.7884 51.0999 41.506 51.029 41.2197C51.0137 40.9292 51.0137 40.6381 51.029 40.3477C50.8702 40.6233 50.8238 40.9471 50.8993 41.2546C50.9211 41.5626 51.0599 41.8518 51.2886 42.0656Z" fill="#263238"/>
<path id="Vector_41" d="M51.0114 40.919C51.0114 40.919 51.0472 41.0367 51.2261 41.0803C51.3321 41.1022 51.4427 41.0835 51.5349 41.028C51.5894 40.9898 51.6344 40.9401 51.6665 40.8827C51.6987 40.8253 51.7172 40.7616 51.7206 40.6963C51.724 40.6309 51.7123 40.5657 51.6864 40.5054C51.6604 40.4451 51.6209 40.3912 51.5707 40.3478C51.4824 40.2866 51.3742 40.2587 51.2664 40.2693C51.083 40.2693 51.0203 40.4001 51.0382 40.4088C51.0561 40.4175 51.1322 40.3652 51.2709 40.3739C51.3126 40.3732 51.354 40.381 51.3924 40.3967C51.4309 40.4125 51.4655 40.4359 51.4942 40.4654C51.5228 40.495 51.5448 40.53 51.5587 40.5683C51.5727 40.6066 51.5783 40.6473 51.5752 40.6879C51.5735 40.7286 51.5634 40.7685 51.5454 40.8053C51.5274 40.8421 51.502 40.8749 51.4706 40.9018C51.4392 40.9287 51.4026 40.9491 51.3629 40.9618C51.3231 40.9745 51.2812 40.9792 51.2396 40.9756C51.1009 40.98 51.0293 40.9015 51.0114 40.919Z" fill="#263238"/>
<path id="Vector_42" d="M27.3 63.9887C27.3 64.0279 32.7054 64.0628 39.3817 64.0628C46.0579 64.0628 51.4634 64.0279 51.4634 63.9887C51.4634 63.9494 46.0624 63.9146 39.3817 63.9146C32.7009 63.9146 27.3 63.9494 27.3 63.9887Z" fill="#263238"/>
<path id="Vector_43" d="M27.0539 63.958C27.4044 63.9048 27.7451 63.8019 28.0652 63.6528C28.3977 63.5508 28.714 63.4041 29.0049 63.2168C28.6598 63.2714 28.325 63.3758 28.0115 63.5264C27.6724 63.624 27.3498 63.7694 27.0539 63.958Z" fill="#263238"/>
<path id="Vector_44" d="M26.7898 64.0449C27.2996 64.3272 27.8574 64.5178 28.4365 64.6074C28.1902 64.4505 27.9198 64.3328 27.6356 64.2586C27.3685 64.14 27.0823 64.0677 26.7898 64.0449Z" fill="#263238"/>
<path id="Vector_45" d="M50.4027 64.7339C50.319 64.7901 50.248 64.8624 50.1941 64.9464C50.1402 65.0304 50.1046 65.1243 50.0895 65.2222C50.0359 65.4356 50.0531 65.66 50.1387 65.8632C50.1881 65.9887 50.2717 66.0987 50.3803 66.1815C50.447 66.2235 50.5247 66.2459 50.6041 66.2459C50.6835 66.2459 50.7612 66.2235 50.8278 66.1815C50.9417 66.0993 51.0331 65.9911 51.094 65.8664C51.1549 65.7417 51.1833 65.6043 51.1768 65.4664C51.1801 65.355 51.1576 65.2442 51.1112 65.1424C51.0647 65.0405 50.9954 64.9501 50.9083 64.8778C50.8503 64.8288 50.7828 64.7917 50.7098 64.7685C50.6368 64.7452 50.5598 64.7365 50.4833 64.7426C50.3759 64.7426 50.3266 64.7906 50.3311 64.7949C50.3356 64.7993 50.3893 64.7949 50.4833 64.7949C50.616 64.8066 50.7407 64.8619 50.8368 64.9519C50.9057 65.0171 50.9595 65.096 50.9942 65.1833C51.029 65.2706 51.0439 65.3642 51.0381 65.4577C51.0409 65.5714 51.0165 65.6842 50.9668 65.7871C50.9171 65.89 50.8434 65.9803 50.7517 66.0507C50.7077 66.0783 50.6564 66.0929 50.6041 66.0929C50.5517 66.0929 50.5004 66.0783 50.4564 66.0507C50.3678 65.9849 50.2984 65.8977 50.255 65.7978C50.1765 65.6193 50.1517 65.4227 50.1834 65.2309C50.2301 65.0553 50.304 64.8877 50.4027 64.7339Z" fill="#263238"/>
<path id="Vector_46" d="M30.7502 65.0439C30.7502 65.0439 30.6652 64.9959 30.5488 65.0918C30.5145 65.1209 30.4874 65.1572 30.4695 65.198C30.4517 65.2388 30.4436 65.283 30.4459 65.3273C30.4573 65.4405 30.5078 65.5466 30.5891 65.6281C30.7592 65.8112 31.0724 65.881 31.2156 66.1034C31.2485 66.1614 31.2657 66.2267 31.2657 66.293C31.2657 66.3594 31.2485 66.4246 31.2156 66.4827C31.1784 66.5436 31.124 66.5927 31.059 66.6244C30.9939 66.6561 30.921 66.669 30.8487 66.6615C30.7757 66.6555 30.7063 66.6282 30.6496 66.583C30.5928 66.5379 30.5515 66.4771 30.531 66.4086C30.5093 66.345 30.505 66.277 30.5183 66.2113C30.5317 66.1456 30.5622 66.0844 30.607 66.0336C30.6974 65.9317 30.8067 65.8474 30.9292 65.7851C30.9959 65.7609 31.0562 65.7225 31.1057 65.6727C31.1553 65.6229 31.1928 65.563 31.2156 65.4973C31.2288 65.4407 31.2288 65.382 31.2157 65.3254C31.2025 65.2688 31.1765 65.2158 31.1395 65.1703C31.0865 65.105 31.0172 65.0539 30.9382 65.022C30.8084 64.9784 30.7323 64.9872 30.7278 64.9959C30.7234 65.0046 30.7994 64.9959 30.9113 65.0744C30.9764 65.1086 31.0317 65.1581 31.0724 65.2183C31.0981 65.2548 31.115 65.2965 31.122 65.3403C31.1289 65.384 31.1258 65.4287 31.1127 65.4711C31.0679 65.6586 30.7099 65.6848 30.4996 65.9508C30.4391 66.0192 30.3975 66.1016 30.3787 66.1901C30.3599 66.2786 30.3646 66.3703 30.3922 66.4565C30.4229 66.5514 30.4819 66.6351 30.5615 66.6973C30.6412 66.7594 30.738 66.797 30.8397 66.8054C30.9402 66.8159 31.0417 66.798 31.1322 66.754C31.2226 66.7099 31.2981 66.6415 31.3498 66.5568C31.3961 66.477 31.4204 66.3869 31.4204 66.2952C31.4204 66.2035 31.3961 66.1134 31.3498 66.0336C31.2585 65.9087 31.1351 65.8094 30.9919 65.7458C30.8817 65.6936 30.7782 65.6292 30.6831 65.554C30.6121 65.4927 30.5648 65.4096 30.5488 65.3185C30.5453 65.2851 30.5486 65.2513 30.5586 65.2191C30.5685 65.1869 30.585 65.157 30.607 65.1311C30.6607 65.0439 30.7502 65.0569 30.7502 65.0439Z" fill="#263238"/>
<path id="Vector_47" d="M30.8125 64.4941C30.9154 64.0638 30.9154 63.6163 30.8125 63.186C30.7096 63.6163 30.7096 64.0638 30.8125 64.4941Z" fill="#263238"/>
<path id="Vector_48" d="M24.3558 64.0147C24.4877 64.0607 24.6275 64.0814 24.7675 64.0757L25.2149 64.1019C25.2483 64.1129 25.2845 64.1129 25.3178 64.1019C25.3396 64.0882 25.3564 64.0682 25.366 64.0448C25.3756 64.0214 25.3776 63.9956 25.3715 63.9711C25.3561 63.9161 25.3232 63.8673 25.2776 63.8316L25.0807 63.631C24.9465 63.5294 24.8582 63.3808 24.8346 63.2168C24.8306 63.1578 24.8469 63.0992 24.881 63.0502C24.915 63.0013 24.9648 62.9648 25.0225 62.9465C25.1135 62.9357 25.2056 62.9525 25.2865 62.9944C25.3536 63.0206 25.3894 63.038 25.3984 63.0293C25.4073 63.0206 25.376 62.9901 25.3178 62.9465C25.231 62.8738 25.1189 62.8364 25.0046 62.8418C24.9154 62.8593 24.8355 62.907 24.779 62.9764C24.7225 63.0459 24.693 63.1326 24.6959 63.2212C24.7125 63.4191 24.809 63.6026 24.9643 63.7313L25.1702 63.9275C25.206 63.958 25.2328 63.9885 25.2328 64.0016H25.206H24.7585C24.6245 63.984 24.4883 63.9884 24.3558 64.0147Z" fill="#263238"/>
<path id="Vector_49" d="M46.0532 63.9882C46.0532 63.9882 46.0532 63.84 46.0532 63.5828C46.0532 63.3255 46.0532 62.9462 46.0756 62.5058C46.0756 61.5902 46.1024 60.3257 46.1069 58.8782L46.0353 58.9523H47.4359L47.3598 58.8782V60.3911C47.3598 60.8751 47.3598 61.3373 47.3598 61.7733C47.3598 62.6453 47.3598 63.3865 47.3822 63.9839L47.4269 63.9403L46.4067 63.9621C46.1651 63.9621 46.0308 63.9621 46.0264 63.9839C46.1441 63.9913 46.2621 63.9913 46.3799 63.9839L47.4269 64.0057H47.4717V63.9621C47.4717 63.3647 47.4717 62.6148 47.4717 61.7515C47.4717 61.3155 47.4717 60.8533 47.4717 60.3693V58.8563L47.3956 58.7822H45.9637V58.852C45.9637 60.3301 45.9637 61.6163 45.9995 62.5276C45.9995 62.9636 45.9995 63.3211 45.9995 63.5915C46.0059 63.725 46.0238 63.8577 46.0532 63.9882Z" fill="#263238"/>
<path id="Vector_50" d="M32.6964 63.9885C32.7015 63.9363 32.7015 63.8838 32.6964 63.8316C32.6964 63.7182 32.6964 63.5787 32.6964 63.3955C32.6964 63.0031 32.6963 62.4712 32.7187 61.8128C32.7187 60.4786 32.7456 58.6299 32.75 56.5327L32.674 56.6024H34.079L34.003 56.5327V57.6837C34.003 58.0631 34.003 58.4337 34.003 58.7956C34.003 59.5237 34.003 60.2083 34.003 60.8492C34.003 62.1137 34.0253 63.1863 34.0298 63.9711L34.0701 63.9318H33.0454H32.7679H32.665C32.7827 63.9399 32.9008 63.9399 33.0185 63.9318L34.0701 63.9536H34.1104V63.9144C34.1104 63.1296 34.1104 62.057 34.1372 60.7925C34.1372 60.1516 34.1372 59.4845 34.1372 58.7389C34.1372 58.377 34.1372 58.0064 34.1372 57.6271V56.476L34.0611 56.4019H32.5845V56.476C32.5845 58.6037 32.5845 60.4786 32.6158 61.8084C32.6158 62.4581 32.6158 62.9857 32.6382 63.3737C32.6382 63.5394 32.6382 63.679 32.6382 63.8098C32.6382 63.9406 32.6964 63.9929 32.6964 63.9885Z" fill="#263238"/>
<path id="Vector_51" d="M42.6748 63.9887C42.68 63.9248 42.68 63.8607 42.6748 63.7968C42.6748 63.6573 42.6748 63.4785 42.6748 63.2562C42.6748 62.7809 42.6748 62.1138 42.6972 61.2854C42.6972 59.6154 42.6972 57.3089 42.7285 54.7059L42.6524 54.78H44.0575C43.9053 54.6318 44.0172 54.7408 43.9814 54.7103V56.184C43.9814 56.668 43.9814 57.1389 43.9814 57.601C43.9814 58.521 43.9814 59.3887 43.9814 60.1866C43.9814 61.7737 44.0038 63.0818 44.0128 63.9887L44.0485 63.9538H43.0149H42.7419H42.6435H42.7285H42.997H44.0485H44.0843V63.9189C44.0843 63.012 44.0843 61.7039 44.1112 60.1168C44.1112 59.3189 44.1112 58.4513 44.1112 57.5313C44.1112 57.0691 44.1112 56.5982 44.1112 56.1142V54.6405C44.0754 54.6056 44.1873 54.7103 44.0351 54.562H42.5585V54.6318C42.5585 57.2479 42.5808 59.5806 42.5898 61.2636C42.5898 62.0833 42.5898 62.746 42.6122 63.2169C42.6122 63.4349 42.6122 63.6093 42.6122 63.7401C42.6122 63.8709 42.6748 63.993 42.6748 63.9887Z" fill="#263238"/>
<path id="Vector_52" d="M39.3725 63.9579C39.3744 63.9332 39.3744 63.9084 39.3725 63.8837V63.6526C39.3725 63.4521 39.3725 63.173 39.3725 62.8199C39.3725 62.0917 39.3725 61.0496 39.3949 59.7677C39.3949 57.1778 39.4172 53.5981 39.4307 49.5781L39.3546 49.6522H40.7731L40.7015 49.5824V54.1911C40.7015 55.6474 40.7015 57.0165 40.7015 58.2635C40.7015 60.7401 40.7283 62.7239 40.7373 63.9317L40.7641 63.9055H39.7305H39.3635C39.3635 63.9055 39.3904 63.9055 39.4486 63.9055H39.6991H40.7507H40.782V63.875C40.782 62.6454 40.782 60.6616 40.8133 58.2068C40.8133 56.9598 40.8133 55.5907 40.8133 54.1344C40.8133 53.4019 40.8133 52.652 40.8133 51.8802V49.5258C40.782 49.4909 40.8894 49.5955 40.7373 49.4473H39.2606V49.5214C39.2606 53.5589 39.2606 57.1604 39.2919 59.7634C39.2919 61.0453 39.2919 62.083 39.3143 62.8155C39.3143 63.1643 39.3143 63.439 39.3143 63.6352V63.8445C39.368 63.9404 39.368 63.9622 39.3725 63.9579Z" fill="#263238"/>
<path id="Vector_53" d="M35.9854 63.9578C35.9854 63.9578 35.9854 63.9142 35.9854 63.8313C35.9854 63.7485 35.9854 63.6177 35.9854 63.4607C35.9854 63.1337 35.9854 62.6584 35.9854 62.0524C35.9854 60.8272 35.9854 59.0569 36.0078 56.8725C36.0078 52.5124 36.0078 46.4387 36.0391 39.6804L35.963 39.7546H37.3681C37.2204 39.6107 37.3234 39.7197 37.292 39.6891V43.8618C37.292 45.2222 37.292 46.5477 37.292 47.8252C37.292 50.3846 37.292 52.7565 37.292 54.8799C37.292 59.1093 37.3234 62.3227 37.3323 63.9578H36.2807H35.9273C35.9273 63.9578 35.9541 63.9578 36.0123 63.9578H36.2673H37.3323H37.3547V63.9316C37.3547 62.2965 37.3771 59.0831 37.3905 54.8538C37.3905 52.7304 37.3905 50.3584 37.3905 47.799C37.3905 46.5215 37.3905 45.1829 37.3905 43.8357V39.6717C37.3547 39.6368 37.4666 39.7371 37.3144 39.5889H35.8378V39.6717C35.8378 46.4517 35.8378 52.5254 35.8691 56.9161C35.8691 59.0962 35.8691 60.8403 35.8915 62.0785C35.8915 62.6802 35.8915 63.1468 35.8915 63.4738C35.8915 63.6264 35.8915 63.7441 35.8915 63.8313C35.8915 63.9185 35.9854 63.9621 35.9854 63.9578Z" fill="#263238"/>
<path id="Vector_54" d="M186.201 65.397L185.006 85.8156L149.947 83.8666L186.201 65.397ZM180.344 73.3194L165.264 81.1676L179.838 81.9656L180.344 73.3194Z" fill="#0068AD"/>
<path id="Vector_55" d="M166.678 75.4253C166.829 75.8576 167.06 76.2595 167.358 76.6113C167.594 77.0071 167.896 77.361 168.253 77.6577C168.103 77.2254 167.872 76.8235 167.573 76.4717C167.338 76.0758 167.036 75.722 166.678 75.4253Z" fill="#263238"/>
<path id="Vector_56" d="M161.156 78.1851C161.287 78.6362 161.496 79.0623 161.774 79.4451C161.981 79.8652 162.26 80.2484 162.597 80.5788C162.265 79.7046 161.777 78.8943 161.156 78.1851Z" fill="#263238"/>
<path id="Vector_57" d="M155.424 81.0933C155.53 81.5206 155.715 81.9255 155.97 82.2879C156.156 82.6879 156.414 83.0526 156.731 83.3649C156.623 82.9363 156.436 82.5301 156.181 82.1659C155.999 81.7657 155.743 81.402 155.424 81.0933Z" fill="#263238"/>
<path id="Vector_58" d="M168.365 74.5532C168.302 74.5837 168.405 74.8846 168.589 75.2203C168.772 75.5561 168.965 75.8046 169.036 75.7741C169.108 75.7435 168.996 75.4383 168.813 75.1026C168.629 74.7669 168.423 74.5532 168.365 74.5532Z" fill="#263238"/>
<path id="Vector_59" d="M164.736 76.402C164.678 76.4368 164.776 76.7333 164.96 77.0734C165.143 77.4135 165.336 77.6533 165.407 77.6228C165.479 77.5923 165.367 77.2914 165.184 76.9557C165 76.62 164.794 76.3714 164.736 76.402Z" fill="#263238"/>
<path id="Vector_60" d="M162.785 77.4088C162.727 77.4437 162.825 77.7402 163.008 78.0802C163.192 78.4203 163.389 78.6645 163.456 78.6296C163.523 78.5947 163.416 78.2983 163.232 77.9625C163.049 77.6268 162.843 77.3783 162.785 77.4088Z" fill="#263238"/>
<path id="Vector_61" d="M159.276 79.2096C159.218 79.2402 159.317 79.541 159.5 79.8768C159.684 80.2125 159.881 80.461 159.948 80.4305C160.015 80.4 159.907 80.0991 159.724 79.759C159.54 79.4189 159.339 79.1791 159.276 79.2096Z" fill="#263238"/>
<path id="Vector_62" d="M157.254 80.2213C157.196 80.2562 157.295 80.557 157.478 80.8927C157.662 81.2285 157.859 81.477 157.926 81.4421C157.993 81.4072 157.885 81.1108 157.702 80.775C157.518 80.4393 157.313 80.1908 157.254 80.2213Z" fill="#263238"/>
<path id="Vector_63" d="M126.24 36.9858C126.24 36.9858 126.24 36.9597 126.24 36.9117C126.24 36.8638 126.24 36.7853 126.24 36.6937C126.24 36.5019 126.24 36.2228 126.24 35.8609C126.24 35.1284 126.24 34.0645 126.24 32.7129C126.24 30.0096 126.262 26.1727 126.276 21.5335L126.209 21.5945H142.067L141.995 21.5204C141.995 27.1886 141.995 32.4818 141.995 36.9728L142.058 36.9074L130.585 36.9422H127.354H127.327H130.54L142.058 36.9728H142.17V36.9074C142.17 32.4164 142.17 27.1145 142.17 21.455V21.3809H142.094H126.235H126.173V21.4463C126.173 26.0855 126.195 29.9529 126.204 32.6693C126.204 34.0122 126.204 35.0717 126.204 35.7999C126.204 36.1574 126.204 36.4277 126.204 36.6196V36.8986L126.24 36.9858Z" fill="#0068AD"/>
<path id="Vector_64" d="M126.24 36.9858C126.202 36.9555 126.162 36.9278 126.119 36.9029L125.757 36.6762L124.352 35.8042L119.188 32.6954L119.215 32.7433C119.215 28.7102 119.215 23.369 119.215 17.522L119.143 17.5962H119.184H134.818H134.791L140.13 20.487L141.589 21.2805L141.969 21.4811L142.099 21.5465C142.06 21.5183 142.019 21.4922 141.978 21.468L141.602 21.25L140.161 20.4346L134.863 17.4697H119.228H119.112V17.5438C119.112 23.3908 119.112 28.732 119.112 32.7651V32.7957H119.139L124.33 35.887L125.748 36.7242L126.119 36.9378L126.24 36.9858Z" fill="#0068AD"/>
<path id="Vector_65" d="M119.161 17.5049C119.139 17.5398 120.705 18.4685 122.66 19.5804C124.616 20.6922 126.24 21.5686 126.24 21.5337C126.24 21.4988 124.696 20.5701 122.737 19.4539C120.777 18.3377 119.179 17.47 119.161 17.5049Z" fill="#0068AD"/>
<path id="Vector_66" d="M141.347 36.3497C141.347 36.3846 141.481 36.511 141.687 36.6244C141.893 36.7378 142.081 36.8075 142.099 36.7726C142.117 36.7378 141.969 36.6157 141.763 36.4979C141.557 36.3802 141.369 36.3148 141.347 36.3497Z" fill="#0068AD"/>
<path id="Vector_67" d="M139.843 35.5079C139.821 35.5428 139.973 35.6692 140.183 35.7826C140.393 35.896 140.577 35.9657 140.595 35.9308C140.613 35.896 140.465 35.7739 140.255 35.6561C140.044 35.5384 139.865 35.473 139.843 35.5079Z" fill="#0068AD"/>
<path id="Vector_68" d="M138.34 34.6666C138.317 34.7015 138.47 34.8279 138.675 34.9413C138.881 35.0547 139.069 35.1244 139.092 35.0895C139.114 35.0546 138.962 34.9326 138.751 34.8148C138.541 34.6971 138.358 34.6317 138.34 34.6666Z" fill="#0068AD"/>
<path id="Vector_69" d="M136.831 33.8248C136.831 33.8597 136.966 33.9818 137.172 34.0995C137.377 34.2172 137.565 34.2826 137.588 34.2477C137.61 34.2129 137.453 34.0908 137.248 33.973C137.042 33.8553 136.854 33.7899 136.831 33.8248Z" fill="#0068AD"/>
<path id="Vector_70" d="M135.328 32.9835C135.328 33.0184 135.458 33.1405 135.668 33.2582C135.879 33.3759 136.062 33.4413 136.08 33.4064C136.098 33.3715 135.95 33.2495 135.744 33.1317C135.539 33.014 135.351 32.9486 135.328 32.9835Z" fill="#0068AD"/>
<path id="Vector_71" d="M134.948 31.5054C134.908 31.5054 134.877 31.6929 134.877 31.9415C134.877 32.19 134.912 32.3775 134.957 32.3775C135.002 32.3775 135.029 32.19 135.029 31.9415C135.029 31.6929 134.989 31.5011 134.948 31.5054Z" fill="#0068AD"/>
<path id="Vector_72" d="M134.935 29.8135C134.894 29.8135 134.859 30.001 134.863 30.2495C134.867 30.498 134.899 30.6855 134.939 30.6855C134.979 30.6855 135.015 30.4937 135.015 30.2495C135.015 30.0053 134.975 29.8135 134.935 29.8135Z" fill="#0068AD"/>
<path id="Vector_73" d="M134.921 28.1216C134.881 28.1216 134.845 28.3134 134.849 28.5576C134.854 28.8018 134.885 28.9936 134.925 28.9936C134.966 28.9936 135.001 28.8018 135.001 28.5576C135.001 28.3134 134.961 28.1216 134.921 28.1216Z" fill="#0068AD"/>
<path id="Vector_74" d="M134.908 26.4302C134.868 26.4302 134.832 26.622 134.836 26.8662C134.841 27.1104 134.872 27.3022 134.912 27.3022C134.953 27.3022 134.988 27.1147 134.984 26.8662C134.98 26.6177 134.948 26.4302 134.908 26.4302Z" fill="#0068AD"/>
<path id="Vector_75" d="M134.895 24.7427C134.854 24.7427 134.819 24.9302 134.823 25.1787C134.828 25.4272 134.859 25.6147 134.899 25.6147C134.939 25.6147 134.975 25.4272 134.971 25.1787C134.966 24.9302 134.935 24.7427 134.895 24.7427Z" fill="#0068AD"/>
<path id="Vector_76" d="M134.881 23.0508C134.836 23.0508 134.805 23.2383 134.809 23.4868C134.813 23.7353 134.845 23.9228 134.885 23.9228C134.925 23.9228 134.961 23.731 134.957 23.4868C134.952 23.2426 134.921 23.0508 134.881 23.0508Z" fill="#0068AD"/>
<path id="Vector_77" d="M134.867 21.3594C134.822 21.3594 134.791 21.5512 134.795 21.7954C134.8 22.0396 134.831 22.2314 134.871 22.2314C134.912 22.2314 134.947 22.0396 134.943 21.7954C134.939 21.5512 134.907 21.3594 134.867 21.3594Z" fill="#0068AD"/>
<path id="Vector_78" d="M134.854 19.6675C134.809 19.6675 134.778 19.8593 134.782 20.1035C134.787 20.3477 134.818 20.5395 134.858 20.5395C134.898 20.5395 134.934 20.352 134.93 20.1035C134.925 19.855 134.894 19.6675 134.854 19.6675Z" fill="#0068AD"/>
<path id="Vector_79" d="M134.84 17.98C134.795 17.98 134.764 18.1675 134.768 18.416C134.773 18.6645 134.804 18.852 134.845 18.852C134.885 18.852 134.921 18.6645 134.916 18.416C134.912 18.1675 134.88 17.98 134.84 17.98Z" fill="#0068AD"/>
<path id="Vector_80" d="M120.025 32.7304C120.025 32.6956 119.832 32.665 119.577 32.665C119.322 32.665 119.13 32.6956 119.13 32.7304C119.13 32.7653 119.322 32.8002 119.577 32.8002C119.832 32.8002 120.025 32.7697 120.025 32.7304Z" fill="#0068AD"/>
<path id="Vector_81" d="M121.761 32.7304C121.761 32.6956 121.569 32.665 121.314 32.665C121.059 32.665 120.866 32.6956 120.866 32.7304C120.866 32.7653 121.063 32.8002 121.314 32.8002C121.564 32.8002 121.761 32.7697 121.761 32.7304Z" fill="#0068AD"/>
<path id="Vector_82" d="M123.497 32.7304C123.497 32.6956 123.305 32.665 123.05 32.665C122.795 32.665 122.602 32.6956 122.602 32.7304C122.602 32.7653 122.795 32.8002 123.05 32.8002C123.305 32.8002 123.497 32.7697 123.497 32.7304Z" fill="#0068AD"/>
<path id="Vector_83" d="M125.233 32.7304C125.233 32.6956 125.037 32.665 124.786 32.665C124.535 32.665 124.338 32.6956 124.338 32.7304C124.338 32.7653 124.531 32.8002 124.786 32.8002C125.041 32.8002 125.233 32.7697 125.233 32.7304Z" fill="#0068AD"/>
<path id="Vector_84" d="M126.956 32.7304C126.956 32.6956 126.764 32.665 126.509 32.665C126.254 32.665 126.061 32.6956 126.061 32.7304C126.061 32.7653 126.254 32.8002 126.509 32.8002C126.764 32.8002 126.956 32.7697 126.956 32.7304Z" fill="#0068AD"/>
<path id="Vector_85" d="M128.701 32.7304C128.701 32.6956 128.509 32.665 128.254 32.665C127.999 32.665 127.806 32.6956 127.806 32.7304C127.806 32.7653 128.003 32.8002 128.254 32.8002C128.504 32.8002 128.701 32.7697 128.701 32.7304Z" fill="#0068AD"/>
<path id="Vector_86" d="M130.438 32.7304C130.438 32.6956 130.245 32.665 129.99 32.665C129.735 32.665 129.543 32.6956 129.543 32.7304C129.543 32.7653 129.735 32.8002 129.99 32.8002C130.245 32.8002 130.438 32.7697 130.438 32.7304Z" fill="#0068AD"/>
<path id="Vector_87" d="M132.173 32.7304C132.173 32.6956 131.976 32.665 131.726 32.665C131.475 32.665 131.278 32.6956 131.278 32.7304C131.278 32.7653 131.471 32.8002 131.726 32.8002C131.981 32.8002 132.173 32.7697 132.173 32.7304Z" fill="#0068AD"/>
<path id="Vector_88" d="M133.905 32.7304C133.905 32.6956 133.712 32.665 133.457 32.665C133.202 32.665 133.01 32.6956 133.01 32.7304C133.01 32.7653 133.202 32.8002 133.457 32.8002C133.712 32.8002 133.905 32.7697 133.905 32.7304Z" fill="#0068AD"/>
<path id="Vector_89" d="M134.957 32.7304C134.957 32.6956 134.916 32.665 134.867 32.665C134.818 32.665 134.773 32.6956 134.773 32.7304C134.773 32.7653 134.813 32.8002 134.867 32.8002C134.878 32.8014 134.888 32.8006 134.899 32.7977C134.909 32.7948 134.918 32.79 134.927 32.7835C134.935 32.7771 134.942 32.769 134.947 32.7599C134.952 32.7508 134.955 32.7408 134.957 32.7304Z" fill="#0068AD"/>
<path id="Vector_90" d="M117.241 27.5812C117.109 27.5937 116.975 27.5937 116.843 27.5812C116.669 27.5437 116.506 27.4702 116.364 27.3656C116.221 27.261 116.104 27.1278 116.02 26.9751C115.908 26.7441 115.854 26.4906 115.861 26.2352C115.869 25.9799 115.939 25.7299 116.064 25.5058C116.094 25.4441 116.137 25.3899 116.191 25.3476C116.246 25.3052 116.31 25.2757 116.378 25.2616C116.521 25.2441 116.665 25.2817 116.78 25.3662C117.019 25.592 117.193 25.8745 117.286 26.1859C117.411 26.5241 117.487 26.8779 117.51 27.2367H117.657C117.657 26.1162 117.68 25.1395 117.68 24.4419C117.68 24.1149 117.68 23.8402 117.68 23.6222C117.692 23.5237 117.692 23.4242 117.68 23.3257C117.659 23.4232 117.649 23.5226 117.648 23.6222C117.648 23.8402 117.648 24.1149 117.613 24.4419C117.586 25.1395 117.559 26.1162 117.537 27.2367H117.684C117.66 26.8645 117.582 26.4974 117.452 26.1467C117.39 25.9827 117.318 25.8226 117.237 25.6671C117.156 25.509 117.04 25.3705 116.897 25.2616C116.823 25.2073 116.74 25.1678 116.651 25.1453C116.562 25.1229 116.469 25.1179 116.378 25.1308C116.291 25.1512 116.21 25.1899 116.14 25.2441C116.071 25.2984 116.014 25.3669 115.975 25.4447C115.842 25.6901 115.773 25.9632 115.773 26.2404C115.773 26.5177 115.842 26.7908 115.975 27.0362C116.067 27.1965 116.196 27.3344 116.351 27.4394C116.506 27.5444 116.683 27.6137 116.87 27.6422C116.971 27.6583 117.073 27.6583 117.174 27.6422C117.2 27.6257 117.223 27.605 117.241 27.5812Z" fill="#0068AD"/>
<path id="Vector_91" d="M161.223 99.9421C161.223 99.9421 161.16 99.9421 161.04 99.9945C160.919 100.047 160.74 100.086 160.512 100.178C159.843 100.435 159.204 100.759 158.605 101.146C157.651 101.757 156.805 102.516 156.1 103.391C155.153 104.548 154.511 105.913 154.229 107.367C153.909 109.14 154.151 110.965 154.923 112.6C155.347 113.51 155.939 114.338 156.668 115.041C157.049 115.409 157.468 115.739 157.916 116.027C158.153 116.158 158.364 116.297 158.632 116.419C158.901 116.541 159.124 116.659 159.388 116.751C161.474 117.557 163.863 117.592 166.262 117.37C167.461 117.256 168.669 117.086 169.9 116.899C171.149 116.724 172.381 116.446 173.582 116.066C174.796 115.69 175.919 115.076 176.88 114.261C177.341 113.85 177.747 113.384 178.088 112.874C178.412 112.364 178.672 111.818 178.862 111.248C179.223 110.137 179.343 108.966 179.216 107.808C179.09 106.702 178.759 105.629 178.24 104.638C177.218 102.828 175.675 101.349 173.801 100.383C172.187 99.5331 170.423 98.9859 168.602 98.7693C167.104 98.5962 165.591 98.586 164.091 98.7387C162.962 98.8555 161.84 99.0346 160.731 99.275C159.836 99.4756 159.12 99.6587 158.646 99.7852L158.109 99.9378L157.925 99.9988L158.113 99.9552L158.655 99.8201C159.129 99.7023 159.831 99.5279 160.744 99.3404C161.854 99.1117 162.976 98.9443 164.105 98.839C165.594 98.6928 167.095 98.7104 168.579 98.8913C170.381 99.1158 172.125 99.6643 173.721 100.509C175.564 101.467 177.08 102.928 178.084 104.712C178.591 105.688 178.911 106.746 179.028 107.834C179.15 108.969 179.031 110.116 178.679 111.204C178.496 111.761 178.243 112.294 177.927 112.792C177.597 113.288 177.203 113.743 176.755 114.143C175.81 114.94 174.71 115.542 173.52 115.913C172.326 116.289 171.101 116.565 169.859 116.737C168.638 116.925 167.425 117.095 166.235 117.208C163.863 117.431 161.487 117.4 159.438 116.607C157.483 115.871 155.906 114.414 155.048 112.552C154.284 110.943 154.037 109.146 154.341 107.398C154.618 105.965 155.246 104.619 156.171 103.474C156.864 102.603 157.695 101.845 158.632 101.228C159.226 100.839 159.857 100.506 160.516 100.234C160.744 100.143 160.919 100.086 161.04 100.038L161.223 99.9421Z" fill="#263238"/>
<path id="Vector_92" d="M168.741 109.626C169.201 109.729 169.675 109.761 170.146 109.722C170.616 109.74 171.085 109.686 171.538 109.561C171.073 109.517 170.606 109.517 170.141 109.561C169.674 109.541 169.205 109.563 168.741 109.626Z" fill="#263238"/>
<path id="Vector_93" d="M161.219 110.878C161.219 110.878 161.219 110.69 161.219 110.346C161.241 109.859 161.331 109.378 161.488 108.916C161.559 108.591 161.742 108.301 162.007 108.092C162.082 108.05 162.169 108.031 162.255 108.036C162.342 108.042 162.425 108.071 162.494 108.122C162.652 108.236 162.78 108.386 162.866 108.558C163.224 109.416 163.377 110.342 163.313 111.266H163.488C163.437 110.598 163.446 109.927 163.515 109.26C163.539 108.989 163.578 108.72 163.631 108.453C163.675 108.207 163.809 107.984 164.007 107.826C164.102 107.759 164.216 107.723 164.333 107.723C164.451 107.723 164.565 107.759 164.66 107.826C164.861 107.954 165.007 108.149 165.072 108.375C165.136 108.602 165.178 108.834 165.197 109.068C165.224 109.299 165.246 109.526 165.255 109.748C165.28 110.162 165.28 110.577 165.255 110.991H165.394C165.43 110.01 165.461 109.208 165.483 108.619C165.483 108.357 165.483 108.144 165.483 107.974C165.493 107.898 165.493 107.822 165.483 107.747C165.466 107.821 165.455 107.897 165.452 107.974L165.398 108.619C165.363 109.203 165.309 110.006 165.246 110.982H165.385C165.408 110.564 165.408 110.145 165.385 109.727C165.385 109.504 165.358 109.291 165.331 109.038C165.313 108.793 165.27 108.55 165.202 108.314C165.128 108.05 164.96 107.821 164.727 107.669C164.593 107.586 164.438 107.544 164.28 107.546C164.119 107.547 163.962 107.597 163.832 107.69C163.598 107.873 163.439 108.131 163.385 108.419C163.328 108.692 163.286 108.969 163.26 109.247C163.199 109.924 163.199 110.606 163.26 111.283H163.434C163.493 110.335 163.325 109.387 162.942 108.514C162.84 108.313 162.686 108.142 162.494 108.017C162.403 107.953 162.294 107.916 162.181 107.911C162.069 107.905 161.957 107.932 161.859 107.987C161.57 108.215 161.372 108.534 161.3 108.889C161.152 109.364 161.076 109.858 161.076 110.354C161.076 110.529 161.076 110.664 161.098 110.751C161.131 110.799 161.172 110.842 161.219 110.878Z" fill="#263238"/>
<path id="Vector_94" d="M157.299 110.603C157.299 110.603 157.362 110.677 157.514 110.751C157.731 110.854 157.967 110.91 158.208 110.917C158.571 110.928 158.93 110.832 159.237 110.642C159.613 110.399 159.882 110.026 159.988 109.599C160.094 109.171 160.03 108.72 159.81 108.336C159.624 108.031 159.35 107.787 159.022 107.634C158.805 107.532 158.569 107.477 158.328 107.472C158.24 107.466 158.152 107.478 158.069 107.507C158.379 107.532 158.683 107.612 158.964 107.743C159.256 107.899 159.498 108.131 159.662 108.414C159.85 108.766 159.9 109.172 159.805 109.557C159.71 109.943 159.474 110.282 159.143 110.511C158.864 110.691 158.538 110.789 158.203 110.795C157.892 110.787 157.585 110.722 157.299 110.603Z" fill="#263238"/>
<path id="Vector_95" d="M156.243 105.663C156.918 105.703 157.585 105.815 158.234 105.998L158.534 106.094L158.31 105.872C157.879 105.489 157.506 105.048 157.201 104.564C156.962 104.159 156.88 103.684 156.968 103.225C157.017 103.021 157.142 102.859 157.313 102.855C157.489 102.858 157.663 102.903 157.818 102.986C158.055 103.105 158.266 103.269 158.436 103.47C158.556 103.613 158.606 103.709 158.619 103.701C158.601 103.601 158.556 103.508 158.489 103.43C158.335 103.2 158.124 103.012 157.876 102.881C157.704 102.776 157.507 102.718 157.304 102.711C157.241 102.713 157.18 102.727 157.124 102.754C157.067 102.78 157.017 102.817 156.977 102.864C156.897 102.955 156.84 103.064 156.811 103.182C156.701 103.681 156.784 104.203 157.044 104.647C157.356 105.152 157.747 105.607 158.203 105.994L158.279 105.863C157.803 105.724 157.309 105.648 156.811 105.637C156.622 105.613 156.429 105.621 156.243 105.663Z" fill="#263238"/>
</g>
<g id="Character">
<path id="Vector_96" d="M126.275 100.505L116.74 98.7129L98.447 102.803L89.1754 104.686L89.0412 117.03L109.723 120.74L123.68 116.712L128.956 109.147L126.275 100.505Z" fill="#FFBE9D"/>
<path id="Vector_97" d="M133.05 101.735L124.051 99.668C124.051 99.668 117.688 118.853 101.986 118.011C89.1886 117.335 89.1752 104.686 89.1752 104.686L79.8186 106.295C79.8186 106.295 75.8943 129.443 80.1945 145.681C83.7742 159.197 86.9513 177.719 86.9513 177.719H149.109L133.05 101.735Z" fill="#0068AD"/>
<path id="Vector_98" d="M41.8688 161.045C41.8688 161.045 67.5043 117.283 72.1178 111.667C77.1697 105.519 81.2014 106.23 81.2014 106.23L83.9131 135.709L62.1168 165.842L56.9217 167.669L41.8688 161.045Z" fill="#0068AD"/>
<path id="Vector_99" d="M131.976 101.49C131.976 101.49 146.546 102.624 151.772 125.907C154.135 136.428 157.142 148.759 157.983 157.043C158.61 163.056 154.802 169.308 148.649 170.075L140.926 171.471C138.885 171.84 136.777 171.432 135.036 170.332C133.294 169.233 132.052 167.524 131.565 165.558L128.956 155.033L135.905 152.757L134.299 121.403L131.976 101.49Z" fill="#0068AD"/>
<path id="Vector_100" d="M78.6286 122.567C78.5945 122.672 78.572 122.78 78.5615 122.89C78.5212 123.125 78.4765 123.439 78.4138 123.827C78.3825 124.032 78.3512 124.263 78.3109 124.508C78.2706 124.752 78.2572 125.027 78.2303 125.319C78.1677 125.899 78.0961 126.561 78.0648 127.298C77.9568 129.021 77.9448 130.749 78.029 132.474C78.1336 134.585 78.3486 136.689 78.6733 138.778C79.0089 141.002 79.4296 143.104 79.8547 145.005C80.2798 146.906 80.7049 148.611 81.0673 150.041C81.4298 151.471 81.7475 152.618 81.9623 153.411C82.0696 153.79 82.1547 154.096 82.2218 154.322C82.2488 154.429 82.2832 154.534 82.3247 154.636C82.3156 154.527 82.2961 154.419 82.2665 154.314C82.2128 154.078 82.1368 153.773 82.0473 153.389L81.2239 149.984C80.8794 148.55 80.4677 146.845 80.0605 144.944C79.6533 143.043 79.2327 140.945 78.8971 138.726C78.5615 136.507 78.3333 134.366 78.2393 132.443C78.1453 130.52 78.1364 128.754 78.2393 127.289C78.2393 126.557 78.3198 125.894 78.3691 125.31C78.3914 125.022 78.4138 124.752 78.4317 124.499C78.4496 124.246 78.4899 124.028 78.5122 123.819C78.557 123.431 78.5883 123.117 78.6152 122.881C78.6268 122.777 78.6313 122.672 78.6286 122.567Z" fill="#263238"/>
<path id="Vector_101" d="M128.276 156.158C128.306 156.096 128.332 156.032 128.352 155.966C128.396 155.822 128.459 155.639 128.535 155.404L128.821 154.501C128.902 154.091 129.08 153.704 129.341 153.372C129.724 153.014 130.182 152.74 130.683 152.57C131.272 152.353 131.88 152.186 132.5 152.073C133.976 151.806 135.473 151.66 136.974 151.637H137.095V151.523L135.78 143.165C134.934 137.902 134.164 133.136 133.605 129.648C133.314 127.939 133.081 126.548 132.916 125.563C132.835 125.096 132.768 124.726 132.719 124.451C132.719 124.338 132.679 124.242 132.661 124.163C132.658 124.13 132.649 124.098 132.634 124.067C132.627 124.1 132.627 124.135 132.634 124.168C132.634 124.246 132.634 124.342 132.67 124.46C132.706 124.734 132.759 125.105 132.822 125.576C132.97 126.566 133.18 127.961 133.435 129.675C133.981 133.163 134.724 137.92 135.547 143.191C136.03 146.2 136.482 149.047 136.889 151.545L136.992 151.427C135.473 151.465 133.959 151.63 132.468 151.92C131.84 152.042 131.225 152.219 130.629 152.448C130.107 152.634 129.635 152.932 129.247 153.32C129.087 153.495 128.968 153.701 128.898 153.926L128.732 154.506C128.629 154.859 128.544 155.164 128.472 155.417C128.401 155.67 128.356 155.853 128.32 155.988C128.3 156.043 128.285 156.1 128.276 156.158Z" fill="#263238"/>
<path id="Vector_102" d="M148.344 159.716C148.33 159.517 148.291 159.321 148.228 159.132C148.087 158.606 147.898 158.094 147.664 157.601C146.901 155.955 145.711 154.53 144.212 153.466C142.713 152.403 140.956 151.738 139.113 151.536C138.561 151.471 138.004 151.453 137.448 151.484C137.243 151.486 137.039 151.511 136.84 151.558C137.588 151.562 138.335 151.607 139.077 151.693C140.878 151.935 142.59 152.607 144.06 153.649C145.53 154.692 146.712 156.072 147.503 157.667C147.821 158.335 148.102 159.019 148.344 159.716Z" fill="#263238"/>
<path id="Vector_103" d="M144.975 148.126C144.861 148.098 144.743 148.088 144.626 148.096C144.305 148.09 143.983 148.105 143.664 148.139C142.607 148.243 141.572 148.496 140.59 148.889C139.608 149.285 138.689 149.815 137.86 150.463C137.609 150.657 137.371 150.867 137.149 151.091C136.992 151.253 136.907 151.344 136.921 151.357C136.934 151.37 137.314 151.052 137.959 150.59C139.648 149.383 141.614 148.596 143.686 148.296C144.478 148.183 144.975 148.166 144.975 148.126Z" fill="#263238"/>
<path id="Vector_104" d="M129.895 118.011C129.924 117.805 129.935 117.596 129.926 117.388C129.926 116.987 129.953 116.411 130.007 115.7C130.141 113.846 130.468 112.01 130.982 110.22C131.504 108.432 132.207 106.7 133.081 105.048C133.421 104.416 133.708 103.91 133.918 103.57C134.036 103.396 134.138 103.213 134.222 103.021C134.079 103.176 133.952 103.344 133.842 103.522C133.605 103.854 133.296 104.346 132.947 104.974C131.085 108.267 130.028 111.935 129.859 115.692C129.828 116.407 129.832 117 129.859 117.388C129.85 117.596 129.862 117.805 129.895 118.011Z" fill="#263238"/>
<g id="Group_8" opacity="0.3">
<path id="Vector_105" opacity="0.3" d="M79.291 142.096C75.577 135.961 75.4964 127.991 78.7406 121.604C77.6972 128.409 77.9216 135.342 79.4028 142.07" fill="black"/>
</g>
<g id="Group_9" opacity="0.3">
<path id="Vector_106" opacity="0.3" d="M112.359 149.034C115.178 149.84 119.071 150.036 121.832 149.034C119.68 152.012 115.532 153.089 111.934 152.121C108.336 151.153 105.016 147.643 104.739 144.011C106.479 146.304 109.536 148.24 112.359 149.034Z" fill="black"/>
</g>
<path id="Vector_107" d="M101.987 139.127C102 139.211 102.022 139.293 102.054 139.371C102.108 139.528 102.17 139.768 102.295 140.056C102.622 140.889 103.028 141.691 103.508 142.45C104.216 143.581 105.072 144.619 106.054 145.537C108.463 147.821 111.573 149.276 114.91 149.679C116.258 149.849 117.624 149.849 118.973 149.679C119.884 149.568 120.782 149.377 121.657 149.108C121.971 149.016 122.199 148.916 122.36 148.859C122.442 148.832 122.521 148.798 122.597 148.759C122.272 148.83 121.951 148.917 121.635 149.02C117.846 150.047 113.806 149.72 110.243 148.1C106.715 146.411 103.928 143.542 102.389 140.017C102.13 139.45 102.009 139.118 101.987 139.127Z" fill="#263238"/>
<path id="Vector_108" d="M133.417 169.652C133.417 169.652 133.448 169.7 133.529 169.77C133.642 169.879 133.763 169.98 133.891 170.071C134.359 170.411 134.879 170.679 135.431 170.864C136.251 171.13 137.108 171.277 137.972 171.3C139.018 171.333 140.064 171.296 141.105 171.191C143.342 171.004 145.329 170.686 146.765 170.437C147.485 170.311 148.067 170.202 148.465 170.119C148.678 170.091 148.886 170.041 149.087 169.971C148.874 169.974 148.662 169.994 148.452 170.032L146.738 170.276C145.297 170.49 143.302 170.777 141.082 170.965C140.042 171.07 138.996 171.112 137.95 171.091C137.103 171.074 136.263 170.942 135.453 170.699C134.724 170.451 134.038 170.099 133.417 169.652Z" fill="#263238"/>
<path id="Vector_109" d="M82.8794 54.9325L81.0403 53.1885C78.5927 54.2262 77.4605 56.9949 77.0444 59.5674C76.6283 62.1399 76.6909 64.8432 75.5678 67.2064C74.7086 69.0245 73.1469 70.6945 73.3304 72.7045C73.5049 74.6012 75.268 76.136 75.2769 78.0413C75.2769 79.877 73.7107 81.2853 72.7979 82.8898C70.9499 86.1381 69.7506 99.4279 70.7172 103.025C78.8477 102.34 93.2473 101.495 101.382 99.6721C99.2389 86.0161 90.2135 66.7442 82.8794 54.9325Z" fill="#263238"/>
<path id="Vector_110" d="M79.2416 67.1063C78.6778 57.8235 85.5957 49.33 95.2387 48.2094C105.472 47.0234 114.525 54.1654 115.375 63.8798L117.773 103.095C117.817 103.853 117.6 104.603 117.156 105.227C114.793 108.593 110.515 111.227 106.689 111.746C102.989 112.247 99.2346 111.31 96.0844 109.6C95.5618 109.313 95.126 108.896 94.8205 108.393C94.5151 107.889 94.3506 107.316 94.3437 106.731L94.1782 97.9544C94.1788 97.9468 94.1778 97.9391 94.1751 97.9319C94.1724 97.9247 94.1682 97.9182 94.1626 97.9128C94.1571 97.9074 94.1504 97.9033 94.143 97.9006C94.1357 97.898 94.1278 97.897 94.12 97.8977C93.277 97.9596 92.4298 97.9363 91.5918 97.8279C89.2112 97.2611 83.1391 94.9851 81.0986 86.2997C80.4184 83.422 79.7383 75.2467 79.2416 67.1063Z" fill="#FFBE9D"/>
<path id="Vector_111" d="M92.478 79.9294C92.478 79.8422 91.4802 79.7462 89.8648 79.659C89.4576 79.659 89.0683 79.5936 88.9698 79.332C88.9098 78.9321 88.9786 78.5238 89.1667 78.1635L90.1691 75.1114C91.5562 70.7861 92.5317 67.2413 92.3527 67.1934C92.1737 67.1454 90.8985 70.603 89.5113 74.9283C89.1802 75.9965 88.8625 77.0124 88.5582 77.9804C88.4329 78.4164 88.2047 78.9483 88.4508 79.5195C88.5193 79.6527 88.6183 79.7687 88.7401 79.8586C88.8619 79.9486 89.0033 80.0101 89.1533 80.0384C89.3815 80.0826 89.6146 80.0988 89.8469 80.0863C91.4757 80.0776 92.4736 80.0166 92.478 79.9294Z" fill="#263238"/>
<path id="Vector_112" d="M81.8726 70.3893C82.0471 70.5768 83.1032 69.7135 84.6156 69.6699C86.1281 69.6263 87.2557 70.398 87.4168 70.1975C87.4973 70.1059 87.3139 69.7615 86.8216 69.4039C86.1713 68.9485 85.3847 68.7155 84.5843 68.7412C83.7848 68.7681 83.0176 69.0551 82.4051 69.5565C81.9353 69.9489 81.7608 70.3065 81.8726 70.3893Z" fill="#263238"/>
<path id="Vector_113" d="M97.2393 70.7644C97.4451 70.9519 98.5459 69.9796 100.197 69.84C101.848 69.7005 103.132 70.4374 103.298 70.2194C103.379 70.1191 103.155 69.7833 102.596 69.4258C101.846 68.9931 100.975 68.8037 100.108 68.8852C99.2396 68.9601 98.42 69.3074 97.7718 69.8749C97.284 70.2978 97.1408 70.6815 97.2393 70.7644Z" fill="#263238"/>
<path id="Vector_114" d="M94.1778 97.8932C94.1778 97.8932 100.344 97.9586 107.718 93.0229C107.718 93.0229 105.812 100.95 94.227 100.701L94.1778 97.8932Z" fill="#EB996E"/>
<path id="Vector_115" d="M93.3954 83.5485C93.6763 83.1625 94.052 82.8513 94.4882 82.6434C94.9244 82.4354 95.4071 82.3374 95.8923 82.3582C96.2426 82.3632 96.5883 82.4368 96.9089 82.5746C97.2295 82.7125 97.5183 82.9117 97.7582 83.1605C97.9874 83.3988 98.1343 83.7009 98.1784 84.0246C98.2225 84.3483 98.1617 84.6773 98.0043 84.9656C97.615 85.5716 96.7291 85.7679 95.9549 85.6109C95.1883 85.4065 94.4706 85.0568 93.8429 84.5819C93.6565 84.4657 93.4928 84.318 93.3596 84.1459C93.2967 84.0655 93.2596 83.9687 93.2533 83.8678C93.2469 83.7669 93.2714 83.6664 93.3238 83.5791" fill="#EB996E"/>
<path id="Vector_116" d="M97.2213 80.6577C96.9618 80.6577 97.0647 82.3146 95.6686 83.5877C94.2725 84.8609 92.4244 84.7999 92.4244 85.0309C92.4244 85.14 92.8719 85.3274 93.6326 85.2926C94.6411 85.238 95.5991 84.8451 96.3443 84.1807C97.0539 83.5483 97.4812 82.6703 97.5345 81.7347C97.5569 81.0414 97.3377 80.6577 97.2213 80.6577Z" fill="#263238"/>
<path id="Vector_117" d="M96.9747 64.6862C97.1627 65.0873 98.7333 64.7778 100.608 64.8519C102.483 64.926 104.027 65.2879 104.251 64.9173C104.345 64.7298 104.058 64.3635 103.418 64.006C102.567 63.5741 101.628 63.3342 100.669 63.304C99.7099 63.2738 98.7563 63.4541 97.8786 63.8316C97.2298 64.1455 96.9121 64.4943 96.9747 64.6862Z" fill="#263238"/>
<path id="Vector_118" d="M81.5464 65.0136C81.8686 65.3624 83.1439 65.0136 84.6787 65.0136C86.2135 65.0136 87.5023 65.2621 87.811 64.9002C87.9453 64.7258 87.7439 64.377 87.1801 64.0282C86.3995 63.6296 85.5281 63.4301 84.647 63.4484C83.7659 63.4667 82.904 63.7022 82.1416 64.1328C81.5867 64.486 81.4032 64.8435 81.5464 65.0136Z" fill="#263238"/>
<path id="Vector_119" d="M93.8425 46.2472C94.6748 44.8694 96.2186 44.2416 97.9458 43.9887C104.998 42.9466 112.864 47.0844 116.816 52.8659C120.767 58.6475 120.977 67.2762 118.086 73.6246L113.688 70.9475C104.859 67.3983 98.6259 59.1097 92.9475 50.5463C92.1555 49.3822 93.1042 47.4463 93.8425 46.2472Z" fill="#263238"/>
<path id="Vector_120" d="M82.9779 50.0274C85.9268 46.7573 88.0701 43.4871 94.1915 45.7719C95.0865 47.4418 93.2966 49.6088 91.7573 50.8732C89.5199 52.7307 87.6003 53.982 86.1415 55.3119C83.1972 57.9934 79.8501 67.0145 79.5592 71.9371C79.5592 72.2467 78.9999 67.7121 78.6643 67.6642C78.2526 67.6031 76.5925 65.6236 76.8207 62.9203C77.6083 53.6812 80.0291 53.2931 82.9779 50.0274Z" fill="#263238"/>
<path id="Vector_121" d="M97.9281 43.9888C97.4683 43.9014 96.9926 43.9406 96.5544 44.1021C95.4711 44.4259 94.5054 45.0446 93.7711 45.8854C93.5614 46.1218 93.3756 46.3774 93.2162 46.6485C93.0772 46.9104 92.9691 47.1869 92.8941 47.4725C92.7343 47.9331 92.6131 48.4056 92.5316 48.8852C92.4108 49.7267 92.6166 50.2369 92.6614 50.2238C92.7061 50.2107 92.639 49.7093 92.8269 48.9376C92.9512 48.481 93.1005 48.0312 93.2744 47.5903C93.3539 47.3325 93.4588 47.0828 93.5876 46.8447C93.739 46.5948 93.9127 46.3584 94.1067 46.1383C94.7995 45.3562 95.6761 44.7489 96.6618 44.3681C97.4225 44.1021 97.9371 44.0585 97.9281 43.9888Z" fill="#455A64"/>
<path id="Vector_122" d="M83.2692 73.2454C83.2686 73.5798 83.3996 73.9018 83.6351 74.145C83.8706 74.3883 84.1929 74.5345 84.5355 74.5534C84.7057 74.5689 84.8773 74.5512 85.0404 74.5013C85.2034 74.4513 85.3546 74.3701 85.4851 74.2625C85.6155 74.1549 85.7226 74.023 85.8 73.8746C85.8775 73.7261 85.9237 73.5641 85.9361 73.398C85.9448 73.0583 85.8175 72.7286 85.5811 72.4788C85.3448 72.229 85.0179 72.0785 84.6698 72.0594C84.497 72.0433 84.3227 72.0615 84.1574 72.1131C83.9921 72.1647 83.8393 72.2485 83.7082 72.3595C83.5772 72.4704 83.4707 72.6061 83.3953 72.7584C83.3198 72.9107 83.2769 73.0764 83.2692 73.2454Z" fill="#263238"/>
<path id="Vector_123" d="M98.0088 73.3151C98.0001 73.6548 98.1274 73.9844 98.3638 74.2343C98.6001 74.4841 98.927 74.6345 99.2751 74.6537C99.4451 74.6698 99.6166 74.6527 99.7796 74.6032C99.9427 74.5538 100.094 74.473 100.224 74.3658C100.355 74.2585 100.462 74.1269 100.54 73.9786C100.617 73.8304 100.663 73.6685 100.676 73.5026C100.686 73.1622 100.559 72.8314 100.322 72.5806C100.086 72.3298 99.7583 72.1788 99.4094 72.1597C99.2391 72.1435 99.0672 72.1608 98.9039 72.2105C98.7406 72.2603 98.5892 72.3414 98.4586 72.4491C98.328 72.5568 98.221 72.689 98.1437 72.8377C98.0664 72.9865 98.0206 73.1488 98.0088 73.3151Z" fill="#263238"/>
<path id="Vector_124" d="M138.567 84.2284C137.735 82.8942 136.777 81.6385 135.256 81.0847C133.734 80.531 132.007 80.2127 130.813 79.1314C128.938 77.4527 129.023 74.6622 129.193 72.2292C129.363 69.7963 129.407 66.9971 127.492 65.362C125.89 63.9973 123.344 63.8752 121.957 62.3099C121.031 61.2678 120.847 59.829 120.525 58.4991C119.63 54.9369 117.63 48.7149 106.855 45.1353L116.386 80.4263C115.675 80.6225 113.974 82.2009 113.88 83.2692C113.795 84.2676 114.238 85.2792 114.247 86.282C114.247 87.5072 112.878 88.2397 112.01 89.1466C110.909 90.3021 110.569 91.9677 110.739 93.5068C111.092 95.6104 111.669 97.6723 112.462 99.659C121.304 98.7869 134.209 98.5079 140.948 93.0141C142.169 92.02 140.42 87.1977 138.567 84.2284Z" fill="#263238"/>
<path id="Vector_125" d="M113.67 70.9476C113.836 70.8604 120.346 68.3315 120.762 75.0243C121.178 81.7171 114.211 80.723 114.189 80.5355C114.167 80.348 113.67 70.9476 113.67 70.9476Z" fill="#FFBE9D"/>
<path id="Vector_126" d="M116.122 77.8843C116.154 77.8581 116.248 77.9584 116.458 78.0325C116.749 78.1363 117.07 78.1253 117.353 78.002C118.06 77.6968 118.601 76.5414 118.561 75.338C118.538 74.7646 118.386 74.2032 118.114 73.6942C118.036 73.4897 117.908 73.3066 117.742 73.1601C117.577 73.0137 117.377 72.9082 117.161 72.8527C117.021 72.8255 116.876 72.8468 116.751 72.9129C116.626 72.979 116.529 73.0858 116.476 73.2146C116.395 73.4064 116.449 73.5372 116.413 73.5503C116.377 73.5634 116.257 73.4457 116.297 73.1666C116.323 72.9982 116.408 72.8439 116.539 72.7306C116.718 72.5799 116.951 72.5047 117.187 72.5213C117.472 72.5582 117.742 72.6658 117.972 72.8338C118.201 73.0018 118.383 73.2245 118.498 73.4805C118.825 74.0429 119.007 74.6745 119.026 75.3205C119.067 76.6678 118.44 77.9671 117.465 78.3029C117.285 78.3667 117.092 78.3897 116.901 78.3701C116.71 78.3504 116.527 78.2887 116.364 78.1895C116.145 78.0413 116.1 77.8974 116.122 77.8843Z" fill="#EB996E"/>
<path id="Vector_127" d="M89.3052 72.6961C89.2688 72.1932 89.1956 71.6934 89.0859 71.2006C88.8789 70.376 88.4977 69.6026 87.9667 68.9297C87.4356 68.2568 86.7663 67.6992 86.0016 67.2926C85.2369 66.886 84.3935 66.6392 83.5254 66.5681C82.6573 66.497 81.7835 66.6031 80.9599 66.8797C80.3926 67.0661 79.8583 67.3367 79.3758 67.682C78.8604 68.0291 78.4069 68.4562 78.0334 68.9464C77.2316 69.9694 76.7876 71.216 76.7667 72.503C76.7457 73.7901 77.1489 75.0498 77.9171 76.097C78.2718 76.5976 78.707 77.0393 79.2058 77.4051C79.676 77.7662 80.2014 78.0531 80.763 78.2553C81.8012 78.645 82.9276 78.7564 84.025 78.578C84.982 78.4241 85.8881 78.0521 86.6696 77.4923C87.8137 76.6813 88.6443 75.5187 89.0277 74.1917C89.1512 73.701 89.2409 73.2028 89.2962 72.7005C89.2981 72.7339 89.2981 72.7674 89.2962 72.8008C89.2962 72.8836 89.2962 72.9795 89.2962 73.0973C89.2923 73.2567 89.2759 73.4156 89.247 73.5725C89.2224 73.789 89.1806 74.0033 89.1217 74.2135C88.7626 75.5786 87.9333 76.7823 86.7725 77.6231C85.9129 78.2499 84.9045 78.6545 83.8413 78.7993C82.778 78.9442 81.6944 78.8245 80.6914 78.4515C79.5007 78.013 78.471 77.2389 77.7336 76.2278C76.9357 75.1429 76.5168 73.8369 76.5385 72.5023C76.5603 71.1677 77.0216 69.8753 77.8544 68.8156C78.2421 68.3102 78.7105 67.8686 79.2416 67.5075C79.7376 67.1605 80.2854 66.8899 80.8659 66.7053C81.8804 66.3637 82.9671 66.2777 84.0248 66.4553C85.0826 66.6329 86.0771 67.0684 86.9157 67.7212C88.0509 68.5986 88.8411 69.8305 89.153 71.2093C89.2042 71.4217 89.2401 71.6373 89.2604 71.8546C89.2824 72.0136 89.2928 72.1738 89.2918 72.3342C89.2918 72.452 89.2918 72.5479 89.2918 72.6264C89.2973 72.6494 89.3018 72.6727 89.3052 72.6961Z" fill="#455A64"/>
<path id="Vector_128" d="M106.595 72.966C106.559 72.4632 106.488 71.9635 106.38 71.4704C106.044 70.133 105.256 68.9445 104.143 68.0957C103.38 67.5123 102.486 67.112 101.534 66.9272C100.443 66.717 99.314 66.7937 98.2633 67.1495C97.6969 67.3378 97.1628 67.6082 96.6792 67.9518C96.1648 68.3001 95.7115 68.7271 95.3368 69.2162C94.5361 70.2387 94.0923 71.4841 94.0706 72.77C94.0488 74.056 94.4503 75.315 95.216 76.3625C95.5727 76.863 96.0093 77.3046 96.5092 77.6706C96.9793 78.0318 97.5048 78.3188 98.0664 78.5208C99.1046 78.9105 100.231 79.0219 101.328 78.8435C102.284 78.6897 103.189 78.3177 103.969 77.7578C105.114 76.9467 105.946 75.7843 106.331 74.4571C106.455 73.9666 106.543 73.4684 106.595 72.966C106.6 72.9992 106.6 73.033 106.595 73.0662C106.595 73.1447 106.595 73.245 106.595 73.3627C106.595 73.5222 106.58 73.6813 106.55 73.838C106.526 74.0549 106.483 74.2694 106.421 74.4789C106.065 75.8458 105.235 77.0505 104.071 77.8886C103.28 78.4678 102.361 78.859 101.387 79.0309C100.255 79.221 99.0915 79.1126 98.0172 78.717C96.8246 78.2818 95.794 77.507 95.0594 76.4933C94.2615 75.4084 93.8426 74.1023 93.8643 72.7678C93.8861 71.4332 94.3474 70.1408 95.1802 69.0811C95.95 68.0927 97.0047 67.3504 98.2096 66.949C99.2966 66.587 100.463 66.5163 101.588 66.744C102.786 66.984 103.887 67.5554 104.76 68.3898C105.633 69.2242 106.241 70.2863 106.51 71.4486C106.566 71.6602 106.602 71.8761 106.618 72.0939C106.644 72.2524 106.655 72.4131 106.649 72.5736V72.8657C106.639 72.9025 106.62 72.9368 106.595 72.966Z" fill="#455A64"/>
<path id="Vector_129" d="M94.2451 72.5085C94.2093 72.5303 94.0303 72.2469 93.6142 71.9199C93.0808 71.4888 92.4126 71.2474 91.7197 71.2356C91.0268 71.2237 90.3504 71.4419 89.8017 71.8545C89.3543 72.164 89.1842 72.4431 89.1529 72.4169C89.2642 72.1415 89.4535 71.9026 89.6988 71.728C90.2592 71.25 90.9824 70.9927 91.7271 71.0064C92.4718 71.0201 93.1845 71.3038 93.726 71.8021C93.9636 71.9855 94.1435 72.2302 94.2451 72.5085Z" fill="#455A64"/>
<path id="Vector_130" d="M115.245 70.5202C114.833 70.6474 114.409 70.7322 113.979 70.7731C113.187 70.8951 112.09 71.0085 110.882 71.1131L107.781 71.3835C107.356 71.4472 106.927 71.4793 106.497 71.4794C106.909 71.3511 107.333 71.2648 107.763 71.2222C108.551 71.1044 109.647 70.9911 110.86 70.8864L113.956 70.6161C114.383 70.5496 114.814 70.5175 115.245 70.5202Z" fill="#455A64"/>
<path id="Vector_131" d="M79.3174 76.4675C78.759 75.8387 78.3059 75.128 77.975 74.3615C77.7151 73.5679 77.5837 72.7397 77.5857 71.9067C77.4861 72.1413 77.4403 72.3943 77.4514 72.648C77.4354 73.2587 77.5387 73.8668 77.7557 74.44C77.9722 75.0133 78.3004 75.5403 78.7222 75.9922C79.0489 76.3323 79.2995 76.4893 79.3174 76.4675Z" fill="white"/>
<path id="Vector_132" d="M78.2352 69.5784C78.1994 69.5261 77.9444 69.6525 77.7878 69.949C77.6312 70.2455 77.6983 70.5158 77.7609 70.5115C77.8236 70.5071 77.8773 70.2848 77.9981 70.0449C78.1189 69.8051 78.2755 69.6264 78.2352 69.5784Z" fill="white"/>
<path id="Vector_133" d="M95.1137 75.1463C95.1495 75.1463 95.0242 74.7974 94.9213 74.235C94.6575 72.7597 94.9482 71.2411 95.7402 69.9577C96.04 69.4693 96.2816 69.199 96.2548 69.1729C95.9912 69.3603 95.769 69.5975 95.6015 69.8705C95.1521 70.5044 94.8433 71.2226 94.6946 71.9794C94.5459 72.7361 94.5606 73.5147 94.7379 74.2655C94.8009 74.5808 94.9287 74.8804 95.1137 75.1463Z" fill="white"/>
<path id="Vector_134" d="M118.901 80.444C118.901 80.444 118.995 80.5748 119.129 80.8147C119.322 81.1553 119.423 81.5376 119.425 81.9265C119.432 82.2084 119.379 82.4888 119.27 82.7499C119.16 83.011 118.997 83.2473 118.789 83.4438C118.539 83.6863 118.233 83.8675 117.897 83.9729C117.561 84.0782 117.205 84.1046 116.856 84.0499C116.51 83.9805 116.185 83.8337 115.907 83.6211C115.629 83.4084 115.406 83.1358 115.254 82.8247C115.132 82.5691 115.065 82.2918 115.056 82.0099C115.048 81.728 115.098 81.4474 115.205 81.1853C115.346 80.8225 115.577 80.4991 115.876 80.2435C116.091 80.0647 116.234 79.9906 116.225 79.9731C116.077 80.0101 115.94 80.0786 115.823 80.1737C115.481 80.4156 115.215 80.7445 115.053 81.1242C114.923 81.4053 114.856 81.7099 114.856 82.0181C114.856 82.3262 114.923 82.6308 115.053 82.9119C115.207 83.2623 115.448 83.57 115.754 83.8073C116.06 84.0446 116.422 84.2041 116.807 84.2715C117.192 84.339 117.588 84.3122 117.96 84.1936C118.332 84.075 118.667 83.8683 118.937 83.5921C119.16 83.3741 119.333 83.1126 119.445 82.8248C119.557 82.537 119.605 82.2293 119.586 81.9221C119.57 81.5116 119.439 81.1132 119.205 80.7711C119.049 80.5312 118.901 80.4353 118.901 80.444Z" fill="#E0E0E0"/>
<path id="Vector_135" d="M81.1034 85.5887C80.7247 85.7363 80.3072 85.7608 79.9131 85.6585C79.4916 85.5434 79.1117 85.3153 78.8168 85.0001C78.4534 84.6178 78.2083 84.1432 78.1098 83.631C78.0073 83.1185 78.0731 82.5876 78.2978 82.1136C78.4821 81.725 78.7562 81.3833 79.0987 81.1152C79.4294 80.8796 79.7905 80.6876 80.1727 80.544C80.0589 80.5341 79.9442 80.549 79.8371 80.5876C79.5344 80.6694 79.2494 80.8038 78.9958 80.9844C78.6158 81.2565 78.3088 81.614 78.1009 82.0264C77.8453 82.5362 77.7668 83.1132 77.8771 83.6702C77.9867 84.227 78.2603 84.7407 78.6647 85.1483C78.9929 85.4818 79.4147 85.7138 79.8773 85.8154C80.1874 85.8867 80.5119 85.8701 80.8125 85.7675C81.0229 85.6846 81.1123 85.5974 81.1034 85.5887Z" fill="#E0E0E0"/>
<path id="Vector_136" d="M105.924 172.164L99.2883 174.078C99.2883 174.078 95.628 175.609 93.8471 176.005C91.6366 176.498 90.1286 175.831 90.048 174.632C89.9675 173.433 91.6858 173.28 91.6858 173.28C93.1462 172.738 94.5666 172.099 95.9368 171.366C96.9317 170.693 97.7453 169.795 98.3084 168.75L95.9368 169.068C95.9368 169.068 90.9475 172.556 89.0681 173.612C87.1887 174.667 86.777 172.814 86.616 172.256C86.4549 171.698 92.1735 166.042 92.1735 166.042C92.1735 166.042 86.6965 169.469 85.7165 170.324C84.7366 171.179 83.2599 171.458 82.9333 170.904C82.6066 170.35 81.7072 170.346 82.9333 167.983C84.1593 165.619 93.9724 159.262 93.9724 159.262L91.2876 158.704L88.3432 159.982C88.1382 160.966 87.7202 161.897 87.1171 162.711C86.0566 164.246 84.1728 162.711 84.1728 162.711L85.3407 156.825L91.1578 153.276C91.1578 153.276 97.2076 153.995 98.107 154.392C99.0064 154.789 99.9908 156.459 99.9908 156.459L101.624 157.104C104.161 157.819 104.076 160.291 104.895 160.37C105.714 160.448 129.582 155.914 129.582 155.914L131.743 155.364C135.323 158.011 136.751 162.384 137.381 166.265C137.381 166.265 138.039 168.166 137.381 169.212L105.924 172.164Z" fill="#FFBE9D"/>
<path id="Vector_137" d="M110.305 168.026C110.333 167.902 110.34 167.774 110.327 167.647C110.329 167.501 110.315 167.354 110.287 167.211C110.266 167.013 110.227 166.818 110.17 166.627C109.834 165.526 109.266 164.505 108.501 163.631C107.759 162.752 106.932 161.945 106.031 161.22C105.674 160.903 105.286 160.621 104.872 160.378C105.203 160.712 105.555 161.027 105.924 161.32C106.785 162.072 107.586 162.885 108.322 163.753C109.065 164.609 109.638 165.592 110.009 166.653C110.273 167.485 110.255 168.03 110.305 168.026Z" fill="#EB996E"/>
<path id="Vector_138" d="M99.9685 156.459C99.9685 156.459 100.165 156.559 100.47 156.799C100.894 157.148 101.261 157.558 101.557 158.016C101.771 158.325 101.954 158.653 102.103 158.997C102.241 159.401 102.328 159.819 102.362 160.244C102.424 160.737 102.605 161.209 102.891 161.621C103.214 162.02 103.481 162.46 103.683 162.929C103.989 163.722 103.989 164.596 103.683 165.389L103.651 165.471L103.727 165.519C104.765 166.172 105.516 167.178 105.835 168.34C105.945 168.799 106.012 169.266 106.036 169.736C106.073 169.614 106.088 169.487 106.081 169.361C106.086 169.007 106.047 168.654 105.965 168.31C105.679 167.089 104.919 166.023 103.844 165.336L103.888 165.467C104.212 164.624 104.212 163.694 103.888 162.851C103.682 162.368 103.405 161.917 103.065 161.512C102.793 161.122 102.621 160.673 102.564 160.204C102.51 159.373 102.198 158.578 101.669 157.924C101.353 157.461 100.956 157.055 100.497 156.725C100.373 156.634 100.237 156.559 100.094 156.503C100.054 156.483 100.012 156.468 99.9685 156.459Z" fill="#EB996E"/>
<path id="Vector_139" d="M94.2227 159.066C94.7953 159.138 95.3773 159.078 95.9215 158.89C96.4657 158.702 96.9568 158.392 97.355 157.985C97.3102 157.932 96.7106 158.381 95.847 158.674C94.9834 158.966 94.2227 159.001 94.2227 159.066Z" fill="#EB996E"/>
<path id="Vector_140" d="M92.693 165.506C93.557 165.27 94.3973 164.958 95.2033 164.573C96.0406 164.26 96.8489 163.878 97.6196 163.431C96.7577 163.673 95.9181 163.985 95.1093 164.364C94.2721 164.677 93.4637 165.059 92.693 165.506Z" fill="#EB996E"/>
<path id="Vector_141" d="M98.0756 168.689C98.9443 168.402 99.7932 168.061 100.617 167.668C100.15 167.689 99.6927 167.804 99.2748 168.009C98.8288 168.147 98.4195 168.379 98.0756 168.689Z" fill="#EB996E"/>
<path id="Vector_142" d="M93.5155 165.921C93.9007 166.122 94.2396 166.398 94.5112 166.732C94.7829 167.065 94.9816 167.45 95.0951 167.861C95.1264 167.861 95.1533 167.708 95.0951 167.464C95.0318 167.144 94.8907 166.844 94.6835 166.588C94.4764 166.333 94.2094 166.129 93.9049 165.995C93.6856 165.903 93.5245 165.894 93.5155 165.921Z" fill="#EB996E"/>
<path id="Vector_143" d="M91.1174 162.384C91.0905 162.445 91.529 162.663 91.8244 163.152C91.9747 163.461 92.1004 163.782 92.2002 164.111C92.2637 163.931 92.2806 163.738 92.2494 163.55C92.2182 163.363 92.1398 163.185 92.0212 163.034C91.6812 162.476 91.1263 162.323 91.1174 162.384Z" fill="#EB996E"/>
<path id="Vector_144" d="M91.7933 155.979C91.8157 155.979 91.9052 155.879 91.9723 155.67C92.0529 155.384 92.0529 155.083 91.9723 154.798C91.8943 154.516 91.7397 154.26 91.5248 154.057C91.3637 153.904 91.2295 153.852 91.2161 153.873C91.4295 154.178 91.6024 154.508 91.7306 154.854C91.7972 155.226 91.8182 155.603 91.7933 155.979Z" fill="#EB996E"/>
<path id="Vector_145" d="M43.4172 157.985C43.4172 157.985 43.717 152.264 49.8026 151.078C55.8882 149.892 66.547 154.933 66.547 154.933L96.4111 175.212L95.5162 177.719L65.2045 173.603L62.4302 174.641L41.1396 161.011L21.0482 146.858L23.2855 145.153C23.2855 145.153 28.9147 148.933 32.6376 150.559C36.3606 152.186 41.7437 155.037 43.4172 157.985Z" fill="#F5F5F5"/>
<path id="Vector_146" d="M96.8721 178.547L71.599 163.248L44.8805 159.066C44.8805 159.066 43.5381 160.959 41.2694 160.496L19.2986 145.672L18.8825 146.566L61.4906 175.735C62.1163 175.958 62.7925 176.01 63.4463 175.885C64.1001 175.761 64.7065 175.465 65.2001 175.029L96.8721 178.547Z" fill="#455A64"/>
<path id="Vector_147" d="M44.8806 159.066C44.9411 159.13 45.0104 159.186 45.0864 159.232L45.7039 159.668C46.2409 160.043 47.015 160.588 47.9413 161.277C49.8385 162.65 52.416 164.608 55.1992 166.827C57.9825 169.046 60.4839 171.109 62.2737 172.613L64.4082 174.401L64.9899 174.88C65.0528 174.941 65.1235 174.994 65.2002 175.037C65.2002 175.037 65.1465 174.967 65.0212 174.85L64.4708 174.335C63.9875 173.899 63.285 173.263 62.399 172.5C60.636 170.965 58.1615 168.889 55.3648 166.661C52.5681 164.433 49.9952 162.497 48.0576 161.154C47.1 160.479 46.308 159.955 45.7531 159.602L45.1133 159.201C45.0401 159.149 44.9622 159.104 44.8806 159.066Z" fill="#263238"/>
<path id="Vector_148" d="M45.1534 155.883C47.5742 153.35 51.3866 152.448 54.9306 152.718C58.4746 152.988 61.8351 154.275 65.1419 155.552L96.0576 176.171L95.7802 176.947L64.6989 156.455C64.6989 156.455 57.7541 154.275 54.68 153.9C49.5431 153.276 45.1534 155.883 45.1534 155.883Z" fill="#E0E0E0"/>
<path id="Vector_149" d="M40.3027 158.595L25.4378 148.824C25.4378 148.824 37.6179 154.998 40.3027 158.595Z" fill="#E0E0E0"/>
<path id="Vector_150" d="M96.0576 176.171C96.0197 176.133 95.9777 176.1 95.9323 176.071L95.5475 175.805L94.0664 174.789L88.5893 171.091L70.4668 158.966L65.2045 155.478C62.2103 154.161 59.0506 153.236 55.8076 152.726C53.188 152.366 50.5172 152.733 48.1022 153.786C47.1991 154.195 46.3672 154.739 45.6366 155.399C45.0903 155.895 44.6255 156.47 44.2584 157.104C44.0276 157.501 43.8473 157.924 43.7215 158.364C43.6901 158.508 43.6633 158.621 43.6409 158.709C43.6311 158.747 43.6236 158.787 43.6186 158.826C43.7794 158.238 44.017 157.672 44.3256 157.143C44.7016 156.526 45.169 155.966 45.7127 155.482C46.4453 154.843 47.2718 154.314 48.1649 153.912C50.5566 152.899 53.1906 152.555 55.7719 152.918C58.9887 153.432 62.1234 154.351 65.0971 155.652H65.0748L70.337 159.14L88.473 171.222L93.9948 174.863L95.4983 175.84L95.8965 176.092C95.9473 176.124 96.0013 176.15 96.0576 176.171Z" fill="#263238"/>
<path id="Vector_151" d="M68.9951 160.584C68.9247 160.527 68.8463 160.48 68.7624 160.444C68.6058 160.361 68.3731 160.235 68.0733 160.087C67.4692 159.781 66.5877 159.354 65.478 158.866C62.6005 157.552 59.547 156.64 56.4078 156.158C53.252 155.694 50.0279 155.981 47.0109 156.995C46.1042 157.314 45.2332 157.722 44.4111 158.212C44.1158 158.377 43.9054 158.539 43.7578 158.648C43.6796 158.695 43.6062 158.749 43.5385 158.809C43.5385 158.809 43.8652 158.626 44.4558 158.299C45.2883 157.844 46.1615 157.463 47.0646 157.161C50.0678 156.201 53.2599 155.94 56.3854 156.398C59.502 156.878 62.5398 157.758 65.4198 159.014C66.534 159.485 67.4245 159.886 68.042 160.169L68.749 160.488C68.8276 160.528 68.91 160.56 68.9951 160.584Z" fill="#263238"/>
<path id="Vector_152" d="M21.8447 146.243C21.8447 146.243 21.9074 146.3 22.0371 146.387L22.6144 146.762L24.7577 148.105C26.5745 149.239 29.0758 150.804 31.8188 152.565C34.5618 154.327 37.014 155.944 38.8038 157.122L40.9204 158.508L41.5021 158.879C41.567 158.925 41.6376 158.963 41.7124 158.992C41.6569 158.935 41.5954 158.884 41.5289 158.84L40.9696 158.434C40.4863 158.085 39.7793 157.593 38.8978 156.987C37.1348 155.779 34.6826 154.135 31.9352 152.374C29.1877 150.612 26.6684 149.069 24.8338 147.97C23.9165 147.42 23.1692 146.984 22.6502 146.688L22.0461 146.348C21.9824 146.307 21.915 146.272 21.8447 146.243Z" fill="#263238"/>
<path id="Vector_153" d="M35.3669 161.922C35.6705 162.634 36.0563 163.309 36.5169 163.936C37.0897 164.599 38.9601 165.523 39.1078 166.783C39.2554 168.043 38.9512 171 40.9737 173.25C42.2775 174.649 43.9274 175.7 45.7661 176.302L53.7445 175.543L66.4885 170.655C66.7733 170.585 67.0184 170.409 67.1708 170.164C67.3231 169.919 67.3706 169.626 67.3029 169.347C67.2239 169.044 67.054 168.771 66.8148 168.563C66.5756 168.355 66.2782 168.221 65.9605 168.179L65.6562 168.131C65.6562 168.131 66.39 167.546 65.3385 166.522C64.4435 165.65 62.5328 166.142 61.5484 166.461C60.564 166.779 54.7916 169.129 53.758 169.491C52.8406 169.809 52.1336 170.093 52.1336 170.093C52.1336 170.093 59.5214 165.236 59.6243 164.599C59.7451 163.836 59.6646 163.487 58.9083 162.955C58.0134 162.323 56.5457 162.999 55.1227 163.583C54.0622 164.019 47.3009 167.272 47.3009 167.272C47.3009 167.272 46.9967 166.984 47.3009 166.4C47.6052 165.815 49.8515 162.999 50.205 162.476C50.5585 161.952 50.6525 161.656 50.299 161.216C49.8068 160.592 48.5091 160.296 47.3144 161.359C46.5581 162.04 43.8689 163.801 43.8689 163.801L31.456 154.976C31.456 154.976 29.9122 154.937 30.4492 157.034C30.9862 159.131 35.3669 161.922 35.3669 161.922Z" fill="#FFBE9D"/>
<path id="Vector_154" d="M44.621 169.278C45.1176 169.17 45.5802 168.948 45.9697 168.629C46.3592 168.31 46.664 167.904 46.8584 167.446C46.8002 167.412 46.4378 167.952 45.8203 168.454C45.2028 168.955 44.5897 169.212 44.621 169.278Z" fill="#EB996E"/>
<path id="Vector_155" d="M43.6001 164.015C43.6001 163.989 43.4345 163.941 43.1526 163.976C42.8009 164.025 42.4701 164.168 42.1962 164.389C41.9223 164.61 41.716 164.9 41.5999 165.227C41.5149 165.48 41.5283 165.663 41.5596 165.663C41.7471 165.256 42.0147 164.889 42.3472 164.582C42.7231 164.315 43.1487 164.123 43.6001 164.015Z" fill="#EB996E"/>
<path id="Vector_156" d="M43.015 166.444C43.0821 166.444 43.1134 165.794 43.3774 165.053C43.6414 164.311 44.0128 163.766 43.9591 163.745C43.5659 164.071 43.2861 164.508 43.1582 164.996C42.9581 165.453 42.9081 165.958 43.015 166.444Z" fill="#EB996E"/>
<path id="Vector_157" d="M35.6718 161.294C35.6718 161.316 35.8284 161.229 35.9895 161.019C36.1937 160.742 36.3215 160.417 36.3607 160.078C36.3999 159.738 36.3491 159.394 36.2133 159.079C36.1059 158.844 35.985 158.726 35.9627 158.743C36.1221 159.161 36.1789 159.609 36.1284 160.052C36.0779 160.495 35.9215 160.921 35.6718 161.294Z" fill="#EB996E"/>
<path id="Vector_158" d="M46.8897 172.321C47.1768 172.385 47.4751 172.385 47.7622 172.321C48.4576 172.201 49.1248 171.959 49.7311 171.606C50.3346 171.26 50.9026 170.859 51.427 170.407C51.6605 170.24 51.8671 170.04 52.04 169.814C51.7825 169.94 51.542 170.097 51.3241 170.28C50.7787 170.691 50.2078 171.068 49.6148 171.41C49.0276 171.749 48.393 172.003 47.7309 172.164C47.2208 172.269 46.8897 172.286 46.8897 172.321Z" fill="#EB996E"/>
<path id="Vector_159" d="M44.8131 171.074C44.7504 171.074 44.746 171.51 45.1218 171.872C45.4977 172.234 45.9541 172.216 45.9452 172.155C45.9362 172.094 45.5917 172.007 45.2874 171.719C44.9831 171.431 44.8802 171.065 44.8131 171.074Z" fill="#EB996E"/>
<path id="Vector_160" d="M41.7659 168.894C41.739 168.894 41.739 169.012 41.824 169.169C41.9415 169.362 42.1184 169.515 42.3297 169.605C42.5393 169.704 42.7754 169.738 43.0054 169.701C43.1843 169.666 43.2738 169.596 43.2604 169.57C43.247 169.544 42.8487 169.605 42.4281 169.4C42.0075 169.195 41.8285 168.872 41.7659 168.894Z" fill="#EB996E"/>
<path id="Vector_161" d="M52.5141 173.843C52.5365 173.899 55.5032 172.696 59.1367 171.148C62.7701 169.6 65.6966 168.297 65.6518 168.244C65.6071 168.192 62.6583 169.395 59.0248 170.943C55.3913 172.491 52.4873 173.786 52.5141 173.843Z" fill="#EB996E"/>
</g>
<g id="Desk">
<path id="Vector_162" d="M0.249985 177.732C0.249985 177.793 45.364 177.845 100.998 177.845C156.632 177.845 201.755 177.793 201.755 177.732C201.755 177.67 156.65 177.618 100.998 177.618C45.3461 177.618 0.249985 177.666 0.249985 177.732Z" fill="#263238"/>
</g>
<g id="Device">
<path id="Vector_163" d="M195.991 131.283L186.281 177.732H102C101.554 177.732 101.126 177.559 100.811 177.251C100.495 176.944 100.318 176.527 100.318 176.092C100.317 175.877 100.36 175.663 100.445 175.463C100.529 175.264 100.653 175.083 100.809 174.93C100.965 174.777 101.151 174.656 101.355 174.574C101.56 174.491 101.779 174.448 102 174.448H118.968L127.971 131.235C128.055 130.832 128.278 130.469 128.604 130.207C128.931 129.946 129.339 129.802 129.761 129.8L194.166 129.129C194.441 129.126 194.713 129.183 194.962 129.296C195.211 129.409 195.431 129.575 195.606 129.781C195.781 129.988 195.907 130.23 195.973 130.49C196.04 130.749 196.046 131.02 195.991 131.283Z" fill="#E0E0E0"/>
<path id="Vector_164" d="M195.991 131.283L196.018 131.144C196.036 130.999 196.036 130.852 196.018 130.707C195.986 130.43 195.889 130.163 195.734 129.927C195.578 129.692 195.37 129.495 195.123 129.351C194.952 129.249 194.764 129.175 194.568 129.133C194.35 129.098 194.128 129.085 193.906 129.094H192.389L188.595 129.125L164.239 129.347L147.262 129.517L137.748 129.609L132.764 129.661L130.213 129.687C129.994 129.687 129.792 129.687 129.56 129.687C129.332 129.712 129.111 129.776 128.906 129.875C128.493 130.071 128.166 130.405 127.985 130.816C127.901 131.02 127.841 131.232 127.806 131.449L127.676 132.072C127.591 132.508 127.501 132.909 127.412 133.328C127.239 134.168 127.063 135.014 126.884 135.866C126.529 137.566 126.169 139.288 125.805 141.032C125.078 144.52 124.332 148.086 123.568 151.728C122.051 159.009 120.467 166.583 118.843 174.401L118.955 174.313H102.269C102.049 174.305 101.828 174.318 101.611 174.353C101.163 174.446 100.769 174.704 100.51 175.072C100.248 175.439 100.141 175.89 100.21 176.332C100.251 176.6 100.355 176.855 100.514 177.076C100.673 177.298 100.883 177.481 101.128 177.61C101.373 177.737 101.646 177.809 101.924 177.819H146.711H186.281H186.353V177.749C189.324 163.47 191.722 151.859 193.409 143.81C194.242 139.79 194.886 136.659 195.324 134.531C195.539 133.467 195.703 132.661 195.817 132.111C195.929 131.562 195.978 131.283 195.978 131.283C195.978 131.283 195.911 131.562 195.794 132.103C195.678 132.643 195.499 133.463 195.275 134.518C194.828 136.646 194.161 139.772 193.311 143.792C191.619 151.837 189.181 163.444 186.178 177.714L186.268 177.645L146.698 177.623H101.942C101.701 177.613 101.466 177.552 101.253 177.444C101.041 177.33 100.859 177.171 100.72 176.979C100.581 176.786 100.489 176.565 100.452 176.332C100.394 175.946 100.487 175.552 100.711 175.229C100.94 174.911 101.284 174.688 101.673 174.605C101.875 174.576 102.078 174.564 102.282 174.571H119.062V174.483C120.686 166.674 122.266 159.101 123.778 151.811C124.539 148.166 125.285 144.599 126.016 141.111L127.09 135.944C127.264 135.094 127.443 134.248 127.618 133.411C127.703 132.975 127.792 132.569 127.877 132.155L128.007 131.527C128.041 131.325 128.095 131.126 128.168 130.934C128.291 130.659 128.487 130.42 128.735 130.243C128.984 130.065 129.276 129.955 129.582 129.923C129.779 129.923 130.003 129.923 130.213 129.923L132.764 129.892L137.753 129.84L147.262 129.731L164.243 129.535L188.599 129.242L192.389 129.195L193.906 129.173C194.124 129.16 194.344 129.171 194.559 129.208C194.752 129.246 194.936 129.316 195.105 129.413C195.347 129.55 195.553 129.739 195.708 129.966C195.863 130.192 195.963 130.451 196 130.721C196.018 130.908 196.015 131.096 195.991 131.283Z" fill="#263238"/>
<path id="Vector_165" d="M159.938 155.251C158.401 155.251 157.155 154.036 157.155 152.539C157.155 151.041 158.401 149.827 159.938 149.827C161.476 149.827 162.722 151.041 162.722 152.539C162.722 154.036 161.476 155.251 159.938 155.251Z" fill="white"/>
<path id="Vector_166" d="M195.911 131.671C195.911 131.671 195.812 131.671 195.62 131.671H191.494L179.444 131.728L139.686 131.998L133.936 132.046H132.522C132.281 132.037 132.04 132.052 131.802 132.089C131.437 132.162 131.101 132.331 130.829 132.578C130.558 132.825 130.361 133.14 130.262 133.489C130.155 133.925 130.079 134.361 129.985 134.797L127.931 144.887C126.629 151.318 125.452 157.095 124.468 161.974C123.483 166.853 122.678 170.768 122.15 173.493C121.881 174.849 121.675 175.905 121.532 176.628C121.465 176.982 121.411 177.256 121.375 177.448C121.34 177.64 121.331 177.727 121.331 177.727C121.331 177.727 121.358 177.636 121.398 177.452C121.438 177.269 121.501 176.99 121.577 176.637L122.239 173.528C122.803 170.803 123.617 166.875 124.629 162.022C125.64 157.169 126.821 151.37 128.141 144.943C128.799 141.73 129.484 138.355 130.209 134.858C130.303 134.422 130.383 133.986 130.482 133.55C130.6 133.136 130.87 132.779 131.242 132.547C131.427 132.432 131.631 132.352 131.846 132.312C132.071 132.276 132.299 132.263 132.526 132.273H133.936L139.686 132.229L179.444 131.889L191.494 131.758L194.77 131.671H195.624H195.911Z" fill="#263238"/>
</g>
</g>
</svg>
