<svg width="34" height="33" viewBox="0 0 34 33" fill="none" xmlns="http://www.w3.org/2000/svg">
<g id="Binoculars">
<path id="Vector" d="M14.1398 21.2305C14.1398 22.2194 13.8344 23.1861 13.2621 24.0083C12.6898 24.8306 11.8763 25.4714 10.9246 25.8499C9.97292 26.2283 8.9257 26.3273 7.91539 26.1344C6.90507 25.9415 5.97703 25.4653 5.24863 24.766C4.52023 24.0667 4.02419 23.1758 3.82322 22.2059C3.62226 21.236 3.7254 20.2307 4.11961 19.3171C4.51381 18.4034 5.18138 17.6225 6.03789 17.0731C6.89439 16.5237 7.90137 16.2305 8.93148 16.2305C10.3128 16.2305 11.6376 16.7573 12.6143 17.6949C13.5911 18.6326 14.1398 19.9044 14.1398 21.2305ZM25.5981 16.2305C24.568 16.2305 23.5611 16.5237 22.7046 17.0731C21.848 17.6225 21.1805 18.4034 20.7863 19.3171C20.3921 20.2307 20.2889 21.236 20.4899 22.2059C20.6909 23.1758 21.1869 24.0667 21.9153 24.766C22.6437 25.4653 23.5717 25.9415 24.5821 26.1344C25.5924 26.3273 26.6396 26.2283 27.5913 25.8499C28.543 25.4714 29.3564 24.8306 29.9287 24.0083C30.501 23.1861 30.8065 22.2194 30.8065 21.2305C30.8065 19.9044 30.2577 18.6326 29.281 17.6949C28.3042 16.7573 26.9795 16.2305 25.5981 16.2305Z" fill="#3DB2FF" fill-opacity="0.3"/>
<path id="Vector_2" d="M31.4837 19.2137C31.3967 18.9807 31.2945 18.7532 31.1777 18.5325L25.7624 6.70498C25.7111 6.59107 25.6378 6.48756 25.5462 6.39998C25.1593 6.02845 24.6999 5.73373 24.1943 5.53266C23.6888 5.33158 23.1469 5.22809 22.5996 5.22809C22.0524 5.22809 21.5105 5.33158 21.0049 5.53266C20.4993 5.73373 20.0399 6.02845 19.653 6.39998C19.4583 6.58707 19.3488 6.84055 19.3483 7.10498V10.23H15.1816V7.10498C15.1818 6.97362 15.1549 6.84353 15.1026 6.72213C15.0503 6.60074 14.9737 6.49042 14.877 6.39748C14.49 6.02595 14.0307 5.73123 13.5251 5.53016C13.0195 5.32908 12.4776 5.22559 11.9303 5.22559C11.3831 5.22559 10.8412 5.32908 10.3356 5.53016C9.83002 5.73123 9.37065 6.02595 8.98373 6.39748C8.89217 6.48506 8.81881 6.58857 8.76758 6.70248L3.35221 18.53C3.2354 18.7507 3.1332 18.9782 3.04622 19.2112C2.73958 20.0349 2.62424 20.913 2.70828 21.7839C2.79233 22.6549 3.07371 23.4977 3.53274 24.2533C3.99177 25.0089 4.61733 25.659 5.3656 26.158C6.11387 26.6571 6.96676 26.9931 7.86452 27.1424C8.76228 27.2918 9.6832 27.2509 10.5628 27.0226C11.4423 26.7943 12.2593 26.3842 12.9563 25.8209C13.6534 25.2576 14.2138 24.5549 14.5982 23.7618C14.9826 22.9688 15.1817 22.1047 15.1816 21.23V12.23H19.3483V21.23C19.3478 22.1048 19.5467 22.9691 19.9308 23.7624C20.3149 24.5556 20.8751 25.2587 21.5721 25.8222C22.2691 26.3857 23.086 26.7961 23.9656 27.0247C24.8452 27.2532 25.7662 27.2943 26.6641 27.1451C27.562 26.9959 28.4151 26.6601 29.1635 26.1611C29.912 25.662 30.5377 25.0119 30.9969 24.2563C31.456 23.5007 31.7375 22.6578 31.8216 21.7867C31.9057 20.9157 31.7904 20.0375 31.4837 19.2137ZM10.5866 7.69873C10.9339 7.41801 11.3672 7.25388 11.8206 7.23132C12.274 7.20875 12.7226 7.32899 13.0983 7.57373V16.7625C12.285 16.0614 11.2941 15.5778 10.2248 15.3602C9.15557 15.1426 8.04551 15.1985 7.00586 15.5225L10.5866 7.69873ZM8.93164 25.23C8.10755 25.23 7.30197 24.9954 6.61677 24.5559C5.93156 24.1163 5.39751 23.4916 5.08214 22.7607C4.76678 22.0298 4.68426 21.2255 4.84504 20.4496C5.00581 19.6737 5.40264 18.961 5.98536 18.4016C6.56808 17.8421 7.31051 17.4612 8.11877 17.3068C8.92702 17.1525 9.7648 17.2317 10.5262 17.5345C11.2875 17.8372 11.9383 18.3499 12.3961 19.0077C12.8539 19.6655 13.0983 20.4389 13.0983 21.23C13.0983 22.2908 12.6593 23.3083 11.8779 24.0584C11.0965 24.8086 10.0367 25.23 8.93164 25.23ZM21.4316 7.57248C21.8073 7.32774 22.256 7.2075 22.7094 7.23007C23.1628 7.25263 23.5961 7.41676 23.9434 7.69748L27.5241 15.52C26.4843 15.1962 25.3742 15.1405 24.3049 15.3583C23.2357 15.5762 22.2448 16.06 21.4316 16.7612V7.57248ZM25.5983 25.23C24.7742 25.23 23.9686 24.9954 23.2834 24.5559C22.5982 24.1163 22.0642 23.4916 21.7488 22.7607C21.4334 22.0298 21.3509 21.2255 21.5117 20.4496C21.6725 19.6737 22.0693 18.961 22.652 18.4016C23.2348 17.8421 23.9772 17.4612 24.7854 17.3068C25.5937 17.1525 26.4315 17.2317 27.1928 17.5345C27.9542 17.8372 28.6049 18.3499 29.0628 19.0077C29.5206 19.6655 29.765 20.4389 29.765 21.23C29.765 22.2908 29.326 23.3083 28.5446 24.0584C27.7632 24.8086 26.7034 25.23 25.5983 25.23Z" fill="black"/>
</g>
</svg>
