<svg width="34" height="33" viewBox="0 0 34 33" fill="none" xmlns="http://www.w3.org/2000/svg">
<g id="Trophy">
<path id="Vector" d="M26.3965 7.32617V14.2137C26.3965 19.1762 22.2624 23.2887 17.0931 23.3262C15.8559 23.3352 14.6292 23.1091 13.4834 22.6609C12.3377 22.2127 11.2958 21.5512 10.4176 20.7146C9.53948 19.8779 8.84251 18.8827 8.3669 17.7863C7.89129 16.6898 7.64645 15.5139 7.64648 14.3262V7.32617C7.64648 7.06096 7.75623 6.8066 7.95158 6.61907C8.14693 6.43153 8.41188 6.32617 8.68815 6.32617H25.3548C25.6311 6.32617 25.896 6.43153 26.0914 6.61907C26.2867 6.8066 26.3965 7.06096 26.3965 7.32617Z" fill="#3DB2FF" fill-opacity="0.3"/>
<path id="Vector_2" d="M30.5632 8.32617H27.4382V7.32617C27.4382 6.79574 27.2187 6.28703 26.828 5.91196C26.4373 5.53689 25.9074 5.32617 25.3548 5.32617H8.68815C8.13562 5.32617 7.60571 5.53689 7.21501 5.91196C6.82431 6.28703 6.60482 6.79574 6.60482 7.32617V8.32617H3.47982C2.92728 8.32617 2.39738 8.53689 2.00668 8.91196C1.61598 9.28703 1.39648 9.79574 1.39648 10.3262V12.3262C1.39648 13.6523 1.94522 14.924 2.92197 15.8617C3.40561 16.326 3.97977 16.6943 4.61167 16.9456C5.24358 17.1968 5.92085 17.3262 6.60482 17.3262H7.08008C7.69368 19.1929 8.86363 20.8462 10.4453 22.0816C12.027 23.317 13.9511 24.0804 15.9798 24.2774V27.3262H12.8548C12.5786 27.3262 12.3136 27.4315 12.1182 27.6191C11.9229 27.8066 11.8132 28.061 11.8132 28.3262C11.8132 28.5914 11.9229 28.8457 12.1182 29.0333C12.3136 29.2208 12.5786 29.3262 12.8548 29.3262H21.1882C21.4644 29.3262 21.7294 29.2208 21.9247 29.0333C22.1201 28.8457 22.2298 28.5914 22.2298 28.3262C22.2298 28.061 22.1201 27.8066 21.9247 27.6191C21.7294 27.4315 21.4644 27.3262 21.1882 27.3262H18.0632V24.2737C22.222 23.8699 25.6725 21.0687 26.9277 17.3262H27.4382C28.8195 17.3262 30.1442 16.7994 31.121 15.8617C32.0978 14.924 32.6465 13.6523 32.6465 12.3262V10.3262C32.6465 9.79574 32.427 9.28703 32.0363 8.91196C31.6456 8.53689 31.1157 8.32617 30.5632 8.32617ZM6.60482 15.3262C5.77602 15.3262 4.98116 15.0101 4.39511 14.4475C3.80906 13.8849 3.47982 13.1218 3.47982 12.3262V10.3262H6.60482V14.3262C6.60482 14.6595 6.62175 14.9928 6.6556 15.3262H6.60482ZM25.3548 14.2137C25.3548 18.6537 21.6452 22.2937 17.0853 22.3262H17.0215C14.8113 22.3262 12.6917 21.4833 11.1289 19.983C9.56612 18.4827 8.68815 16.4479 8.68815 14.3262V7.32617H25.3548V14.2137ZM30.5632 12.3262C30.5632 13.1218 30.2339 13.8849 29.6479 14.4475C29.0618 15.0101 28.267 15.3262 27.4382 15.3262H27.373C27.4158 14.9567 27.4375 14.5854 27.4382 14.2137V10.3262H30.5632V12.3262Z" fill="black"/>
</g>
</svg>
