<svg width="34" height="33" viewBox="0 0 34 33" fill="none" xmlns="http://www.w3.org/2000/svg">
<g id="BookOpenText">
<path id="Vector" d="M30.7204 8.94629V24.9463C30.7204 25.2115 30.6106 25.4659 30.4153 25.6534C30.2199 25.8409 29.955 25.9463 29.6787 25.9463H21.3454C20.2403 25.9463 19.1805 26.3677 18.3991 27.1179C17.6177 27.868 17.1787 28.8854 17.1787 29.9463V11.9463C17.1787 10.8854 17.6177 9.86801 18.3991 9.11786C19.1805 8.36772 20.2403 7.94629 21.3454 7.94629H29.6787C29.955 7.94629 30.2199 8.05165 30.4153 8.23918C30.6106 8.42672 30.7204 8.68107 30.7204 8.94629Z" fill="#3DB2FF" fill-opacity="0.3"/>
<path id="Vector_2" d="M29.679 6.94629H21.3457C20.5371 6.94629 19.7397 7.12701 19.0165 7.47415C18.2933 7.82129 17.6642 8.32531 17.179 8.94629C16.6939 8.32531 16.0648 7.82129 15.3416 7.47415C14.6184 7.12701 13.8209 6.94629 13.0124 6.94629H4.67904C4.1265 6.94629 3.5966 7.157 3.2059 7.53208C2.8152 7.90715 2.5957 8.41586 2.5957 8.94629V24.9463C2.5957 25.4767 2.8152 25.9854 3.2059 26.3605C3.5966 26.7356 4.1265 26.9463 4.67904 26.9463H13.0124C13.8412 26.9463 14.636 27.2624 15.2221 27.825C15.8081 28.3876 16.1374 29.1506 16.1374 29.9463C16.1374 30.2115 16.2471 30.4659 16.4425 30.6534C16.6378 30.8409 16.9028 30.9463 17.179 30.9463C17.4553 30.9463 17.7203 30.8409 17.9156 30.6534C18.111 30.4659 18.2207 30.2115 18.2207 29.9463C18.2207 29.1506 18.5499 28.3876 19.136 27.825C19.722 27.2624 20.5169 26.9463 21.3457 26.9463H29.679C30.2316 26.9463 30.7615 26.7356 31.1522 26.3605C31.5429 25.9854 31.7624 25.4767 31.7624 24.9463V8.94629C31.7624 8.41586 31.5429 7.90715 31.1522 7.53208C30.7615 7.157 30.2316 6.94629 29.679 6.94629ZM13.0124 24.9463H4.67904V8.94629H13.0124C13.8412 8.94629 14.636 9.26236 15.2221 9.82497C15.8081 10.3876 16.1374 11.1506 16.1374 11.9463V25.9463C15.2367 25.2956 14.1396 24.9446 13.0124 24.9463ZM29.679 24.9463H21.3457C20.2185 24.9446 19.1214 25.2956 18.2207 25.9463V11.9463C18.2207 11.1506 18.5499 10.3876 19.136 9.82497C19.722 9.26236 20.5169 8.94629 21.3457 8.94629H29.679V24.9463ZM21.3457 11.9463H26.554C26.8303 11.9463 27.0953 12.0516 27.2906 12.2392C27.486 12.4267 27.5957 12.6811 27.5957 12.9463C27.5957 13.2115 27.486 13.4659 27.2906 13.6534C27.0953 13.8409 26.8303 13.9463 26.554 13.9463H21.3457C21.0694 13.9463 20.8045 13.8409 20.6091 13.6534C20.4138 13.4659 20.304 13.2115 20.304 12.9463C20.304 12.6811 20.4138 12.4267 20.6091 12.2392C20.8045 12.0516 21.0694 11.9463 21.3457 11.9463ZM27.5957 16.9463C27.5957 17.2115 27.486 17.4659 27.2906 17.6534C27.0953 17.8409 26.8303 17.9463 26.554 17.9463H21.3457C21.0694 17.9463 20.8045 17.8409 20.6091 17.6534C20.4138 17.4659 20.304 17.2115 20.304 16.9463C20.304 16.6811 20.4138 16.4267 20.6091 16.2392C20.8045 16.0516 21.0694 15.9463 21.3457 15.9463H26.554C26.8303 15.9463 27.0953 16.0516 27.2906 16.2392C27.486 16.4267 27.5957 16.6811 27.5957 16.9463ZM27.5957 20.9463C27.5957 21.2115 27.486 21.4659 27.2906 21.6534C27.0953 21.8409 26.8303 21.9463 26.554 21.9463H21.3457C21.0694 21.9463 20.8045 21.8409 20.6091 21.6534C20.4138 21.4659 20.304 21.2115 20.304 20.9463C20.304 20.6811 20.4138 20.4267 20.6091 20.2392C20.8045 20.0516 21.0694 19.9463 21.3457 19.9463H26.554C26.8303 19.9463 27.0953 20.0516 27.2906 20.2392C27.486 20.4267 27.5957 20.6811 27.5957 20.9463Z" fill="black"/>
</g>
</svg>
