<svg width="373" height="267" viewBox="0 0 373 267" fill="none" xmlns="http://www.w3.org/2000/svg">
<g clip-path="url(#clip0_1122_2744)">
<path d="M90.0308 211.548C96.9272 218.985 109.823 217.417 109.823 217.417C109.823 217.417 111.53 203.791 104.627 196.359C97.7306 188.922 84.8408 190.486 84.8408 190.486C84.8408 190.486 83.1344 204.111 90.0308 211.548Z" fill="url(#paint0_linear_1122_2744)"/>
<path d="M268.564 55.8552C261.343 60.2198 251.199 55.8014 251.199 55.8014C251.199 55.8014 252.771 44.3084 259.997 39.9492C267.218 35.5846 277.357 39.9981 277.357 39.9981C277.357 39.9981 275.785 51.4911 268.564 55.8552Z" fill="url(#paint1_linear_1122_2744)"/>
<path d="M136.421 69.4791C128.999 77.4834 115.119 75.7955 115.119 75.7955C115.119 75.7955 113.282 61.1305 120.711 53.1312C128.134 45.127 142.007 46.8095 142.007 46.8095C142.007 46.8095 143.844 61.4749 136.421 69.4791Z" fill="url(#paint2_linear_1122_2744)"/>
<path d="M95.7894 145.083C99.3082 145.083 102.161 148.256 102.161 152.171C102.161 156.085 99.3082 159.259 95.7894 159.259C92.2705 159.259 89.418 156.085 89.418 152.171C89.418 148.256 92.2705 145.083 95.7894 145.083Z" fill="#E1E4E5"/>
<path d="M200.97 222.945C202.942 222.945 204.54 224.638 204.54 226.727C204.54 228.816 202.942 230.51 200.97 230.51C198.998 230.51 197.4 228.816 197.4 226.727C197.4 224.638 198.998 222.945 200.97 222.945Z" fill="#3DB2FF"/>
<path d="M291.277 179.335C295.341 179.335 298.635 182.825 298.635 187.13C298.635 191.436 295.341 194.926 291.277 194.926C287.214 194.926 283.92 191.436 283.92 187.13C283.92 182.825 287.214 179.335 291.277 179.335Z" fill="#3DB2FF"/>
<path d="M297.437 124.763C300.727 124.763 303.394 121.937 303.394 118.452C303.394 114.966 300.727 112.14 297.437 112.14C294.147 112.14 291.48 114.966 291.48 118.452C291.48 121.937 294.147 124.763 297.437 124.763Z" fill="#31446C"/>
<path d="M103.993 105.802C106.808 105.802 109.09 103.384 109.09 100.401C109.09 97.4189 106.808 95.001 103.993 95.001C101.178 95.001 98.896 97.4189 98.896 100.401C98.896 103.384 101.178 105.802 103.993 105.802Z" fill="#F8AE9D"/>
<path d="M132.856 230.391C134.555 230.391 135.932 229.023 135.932 227.336C135.932 225.648 134.555 224.28 132.856 224.28C131.157 224.28 129.78 225.648 129.78 227.336C129.78 229.023 131.157 230.391 132.856 230.391Z" fill="#E1E4E5"/>
<path d="M279.214 169.445C281.487 169.445 283.329 167.575 283.329 165.268C283.329 162.96 281.487 161.09 279.214 161.09C276.942 161.09 275.1 162.96 275.1 165.268C275.1 167.575 276.942 169.445 279.214 169.445Z" fill="#E1E4E5"/>
<path d="M262.659 218.386C265.298 218.386 267.437 216.119 267.437 213.323C267.437 210.527 265.298 208.26 262.659 208.26C260.02 208.26 257.88 210.527 257.88 213.323C257.88 216.119 260.02 218.386 262.659 218.386Z" fill="#E1E4E5"/>
<path d="M168.43 53.6036C169.662 53.6036 170.66 52.3947 170.66 50.9034C170.66 49.4121 169.662 48.2031 168.43 48.2031C167.199 48.2031 166.201 49.4121 166.201 50.9034C166.201 52.3947 167.199 53.6036 168.43 53.6036Z" fill="#E1E4E5"/>
<path d="M275.707 133.228C275.372 134.553 276.114 135.915 277.364 136.27C278.614 136.624 279.899 135.838 280.234 134.514C280.569 133.189 279.827 131.827 278.577 131.473C277.327 131.118 276.042 131.904 275.707 133.228Z" fill="#E1E4E5"/>
<path d="M275.003 103.982C276.762 103.982 278.189 102.47 278.189 100.606C278.189 98.7421 276.762 97.231 275.003 97.231C273.244 97.231 271.817 98.7421 271.817 100.606C271.817 102.47 273.244 103.982 275.003 103.982Z" fill="#E1E4E5"/>
<path d="M106.747 128.826C107.978 128.826 108.977 127.92 108.977 126.801C108.977 125.683 107.978 124.776 106.747 124.776C105.515 124.776 104.517 125.683 104.517 126.801C104.517 127.92 105.515 128.826 106.747 128.826Z" fill="#E1E4E5"/>
<path d="M214.261 45.9524C213.564 48.7092 215.108 51.5429 217.71 52.2816C220.312 53.0203 222.987 51.3843 223.684 48.6274C224.381 45.8706 222.837 43.0369 220.235 42.2982C217.633 41.5595 214.959 43.1955 214.261 45.9524Z" fill="#E1E4E5"/>
<path d="M68.1717 137.106H68.1091C67.7391 142.662 63.8398 142.747 63.8398 142.747C63.8398 142.747 68.1398 142.836 68.1398 149.257C68.1398 142.836 72.4398 142.747 72.4398 142.747C72.4398 142.747 68.5417 142.662 68.1717 137.106ZM291.54 66.5679H291.433C290.795 76.1372 284.08 76.2844 284.08 76.2844C284.08 76.2844 291.485 76.438 291.485 87.4949C291.485 76.438 298.891 76.2844 298.891 76.2844C298.891 76.2844 292.178 76.1372 291.54 66.5679Z" fill="#E1E4E5"/>
</g>
<defs>
<linearGradient id="paint0_linear_1122_2744" x1="117.546" y1="236.951" x2="63.4939" y2="156.979" gradientUnits="userSpaceOnUse">
<stop stop-color="white"/>
<stop offset="1" stop-color="#EEEEEE"/>
</linearGradient>
<linearGradient id="paint1_linear_1122_2744" x1="240.679" y1="69.7984" x2="302.159" y2="18.1684" gradientUnits="userSpaceOnUse">
<stop stop-color="white"/>
<stop offset="1" stop-color="#EEEEEE"/>
</linearGradient>
<linearGradient id="paint2_linear_1122_2744" x1="106.807" y1="96.8199" x2="164.983" y2="10.7473" gradientUnits="userSpaceOnUse">
<stop stop-color="white"/>
<stop offset="1" stop-color="#EEEEEE"/>
</linearGradient>
<clipPath id="clip0_1122_2744">
<rect width="378" height="267" fill="white"/>
</clipPath>
</defs>
</svg>
