<svg width="8" height="14" viewBox="0 0 8 14" fill="none" xmlns="http://www.w3.org/2000/svg">
<path id="SF Symbol / chevron.forward" d="M8 7C7.99219 6.72656 7.89062 6.49219 7.67969 6.28125L1.60156 0.335938C1.42188 0.164062 1.21094 0.0703125 0.953125 0.0703125C0.429688 0.0703125 0.0234375 0.476562 0.0234375 1C0.0234375 1.25 0.125 1.48438 0.304688 1.66406L5.77344 7L0.304688 12.3359C0.125 12.5156 0.0234375 12.7422 0.0234375 13C0.0234375 13.5234 0.429688 13.9297 0.953125 13.9297C1.20312 13.9297 1.42188 13.8359 1.60156 13.6641L7.67969 7.71094C7.89844 7.50781 8 7.27344 8 7Z" fill="#3C3C43" fill-opacity="0.6"/>
</svg>
