<svg width="62" height="64" viewBox="0 0 62 64" fill="none" xmlns="http://www.w3.org/2000/svg">
<path id="Vector" d="M43.7445 22.558C46.8489 21.592 49.812 21.712 52.6341 22.9184C55.4748 24.0548 57.6752 25.9749 59.2352 28.6786C61.5368 32.6675 61.9667 36.5857 60.5248 40.4328C59.0825 44.2798 55.8811 47.6364 50.9201 50.5025L27.7322 63.8989L0.688477 17.0268L23.1458 4.05264C27.9295 1.2889 32.2861 0.190392 36.2155 0.75684C40.1892 1.29797 43.2887 3.49632 45.5135 7.35243C47.0991 10.1007 47.6979 12.8277 47.3103 15.5338C46.9414 18.1699 45.7528 20.5114 43.7445 22.558ZM24.4519 28.1194L31.0295 24.3192C34.3071 22.4256 35.1662 20.1267 33.6063 17.423C31.9952 14.6307 29.5505 14.1813 26.2729 16.0749L19.6952 19.8751L24.4519 28.1194ZM42.2681 41.495C45.546 39.6013 46.3921 37.2804 44.8065 34.5324C43.9882 33.114 42.9187 32.2839 41.5982 32.0424C40.3216 31.775 38.8863 32.1018 37.2918 33.0231L29.7839 37.3606L34.6939 45.8709L42.2681 41.495Z" fill="#0393F5"/>
</svg>
