<svg width="247" height="37" viewBox="0 0 247 37" fill="none" xmlns="http://www.w3.org/2000/svg">
<path id="Vector" d="M19.2397 18.9169C21.083 19.2463 22.6466 20.218 23.9303 21.832C25.2141 23.4459 25.856 25.274 25.856 27.3162C25.856 29.062 25.3951 30.643 24.4735 32.0594C23.5847 33.4428 22.2845 34.5463 20.5728 35.3697C18.8611 36.1603 16.8697 36.5555 14.5984 36.5555H0.87207V2.217H13.9565C16.2936 2.217 18.3016 2.61226 19.9803 3.40279C21.6591 4.19332 22.9264 5.26384 23.7822 6.61432C24.638 7.93187 25.0659 9.41409 25.0659 11.061C25.0659 13.0373 24.5393 14.6843 23.486 16.0018C22.4326 17.3194 21.0172 18.291 19.2397 18.9169ZM6.50087 16.6441H13.4628C15.3061 16.6441 16.738 16.2324 17.7584 15.4089C18.8118 14.5525 19.3384 13.3338 19.3384 11.7527C19.3384 10.2046 18.8118 9.00237 17.7584 8.14596C16.738 7.25662 15.3061 6.81195 13.4628 6.81195H6.50087V16.6441ZM14.1047 31.9606C16.0138 31.9606 17.5116 31.4994 18.5978 30.5772C19.6841 29.6549 20.2272 28.3703 20.2272 26.7233C20.2272 25.0435 19.6511 23.7095 18.4991 22.7213C17.347 21.7331 15.8163 21.2391 13.9072 21.2391H6.50087V31.9606H14.1047ZM30.0964 22.8201C30.0964 20.0862 30.656 17.6652 31.7752 15.5571C32.9273 13.4491 34.4744 11.8186 36.4165 10.6658C38.3915 9.47997 40.564 8.88707 42.934 8.88707C45.0736 8.88707 46.9334 9.31528 48.5135 10.1717C50.1264 10.9951 51.4101 12.0327 52.3647 13.2844V9.33175H58.0429V36.5555H52.3647V32.5041C51.4101 33.7887 50.1099 34.8592 48.4641 35.7156C46.8182 36.572 44.942 37.0002 42.8353 37.0002C40.4982 37.0002 38.3586 36.4073 36.4165 35.2215C34.4744 34.0028 32.9273 32.3229 31.7752 30.1819C30.656 28.0079 30.0964 25.554 30.0964 22.8201ZM52.3647 22.9189C52.3647 21.0414 51.9697 19.411 51.1797 18.0275C50.4226 16.6441 49.4187 15.5901 48.1678 14.8654C46.917 14.1408 45.5674 13.7785 44.1191 13.7785C42.6707 13.7785 41.3211 14.1408 40.0703 14.8654C38.8194 15.5571 37.799 16.5947 37.009 17.9781C36.2519 19.3286 35.8734 20.9426 35.8734 22.8201C35.8734 24.6976 36.2519 26.3445 37.009 27.7609C37.799 29.1773 38.8194 30.2642 40.0703 31.0218C41.354 31.7465 42.7036 32.1088 44.1191 32.1088C45.5674 32.1088 46.917 31.7465 48.1678 31.0218C49.4187 30.2972 50.4226 29.2431 51.1797 27.8597C51.9697 26.4434 52.3647 24.7964 52.3647 22.9189ZM79.5081 8.88707C81.5818 8.88707 83.4252 9.33174 85.0381 10.2211C86.684 11.1104 87.9677 12.428 88.8894 14.1737C89.844 15.9195 90.3213 18.0275 90.3213 20.4979V36.5555H84.7419V21.3379C84.7419 18.9004 84.1329 17.0394 82.915 15.7548C81.6971 14.4372 80.0348 13.7785 77.9281 13.7785C75.8214 13.7785 74.1426 14.4372 72.8918 15.7548C71.6739 17.0394 71.0649 18.9004 71.0649 21.3379V36.5555H65.4361V-0.00634766H71.0649V12.4939C72.0195 11.341 73.221 10.4517 74.6693 9.82583C76.1506 9.2 77.7635 8.88707 79.5081 8.88707ZM95.6247 22.8201C95.6247 20.0862 96.1842 17.6652 97.3034 15.5571C98.4555 13.4491 100.003 11.8186 101.945 10.6658C103.92 9.47997 106.092 8.88707 108.462 8.88707C110.602 8.88707 112.462 9.31528 114.042 10.1717C115.655 10.9951 116.938 12.0327 117.893 13.2844V9.33175H123.571V36.5555H117.893V32.5041C116.938 33.7887 115.638 34.8592 113.992 35.7156C112.346 36.572 110.47 37.0002 108.363 37.0002C106.026 37.0002 103.887 36.4073 101.945 35.2215C100.003 34.0028 98.4555 32.3229 97.3034 30.1819C96.1842 28.0079 95.6247 25.554 95.6247 22.8201ZM117.893 22.9189C117.893 21.0414 117.498 19.411 116.708 18.0275C115.951 16.6441 114.947 15.5901 113.696 14.8654C112.445 14.1408 111.096 13.7785 109.647 13.7785C108.199 13.7785 106.849 14.1408 105.598 14.8654C104.348 15.5571 103.327 16.5947 102.537 17.9781C101.78 19.3286 101.402 20.9426 101.402 22.8201C101.402 24.6976 101.78 26.3445 102.537 27.7609C103.327 29.1773 104.348 30.2642 105.598 31.0218C106.882 31.7465 108.232 32.1088 109.647 32.1088C111.096 32.1088 112.445 31.7465 113.696 31.0218C114.947 30.2972 115.951 29.2431 116.708 27.8597C117.498 26.4434 117.893 24.7964 117.893 22.9189ZM140.839 37.0002C138.7 37.0002 136.774 36.6214 135.062 35.8638C133.384 35.0733 132.051 34.0192 131.063 32.7017C130.076 31.3512 129.549 29.8525 129.483 28.2056H135.309C135.408 29.3584 135.951 30.3301 136.939 31.1206C137.959 31.8782 139.226 32.257 140.741 32.257C142.321 32.257 143.539 31.9606 144.394 31.3677C145.283 30.7418 145.728 29.9513 145.728 28.9961C145.728 27.975 145.234 27.2174 144.246 26.7233C143.292 26.2293 141.761 25.6858 139.654 25.0929C137.614 24.5329 135.951 23.9894 134.667 23.4624C133.384 22.9354 132.265 22.1284 131.31 21.0414C130.388 19.9545 129.927 18.5216 129.927 16.7429C129.927 15.2936 130.355 13.9761 131.211 12.7903C132.067 11.5716 133.285 10.6163 134.865 9.92463C136.478 9.23292 138.321 8.88707 140.395 8.88707C143.489 8.88707 145.974 9.6776 147.851 11.2586C149.76 12.8068 150.78 14.9313 150.912 17.6323H145.283C145.184 16.4136 144.691 15.4419 143.802 14.7172C142.913 13.9926 141.712 13.6302 140.197 13.6302C138.716 13.6302 137.581 13.9102 136.791 14.4702C136.001 15.0301 135.606 15.7712 135.606 16.6935C135.606 17.4182 135.869 18.0275 136.396 18.5216C136.922 19.0157 137.564 19.411 138.321 19.7074C139.078 19.9709 140.197 20.3168 141.679 20.745C143.654 21.272 145.267 21.8155 146.518 22.3754C147.801 22.9025 148.904 23.693 149.826 24.747C150.747 25.8011 151.225 27.2009 151.258 28.9467C151.258 30.4948 150.83 31.8782 149.974 33.097C149.118 34.3157 147.9 35.2709 146.32 35.9626C144.773 36.6543 142.946 37.0002 140.839 37.0002ZM155.463 22.8201C155.463 20.0862 156.023 17.6652 157.142 15.5571C158.294 13.4491 159.841 11.8186 161.783 10.6658C163.758 9.47997 165.931 8.88707 168.301 8.88707C170.441 8.88707 172.3 9.31528 173.88 10.1717C175.493 10.9951 176.777 12.0327 177.732 13.2844V9.33175H183.41V36.5555H177.732V32.5041C176.777 33.7887 175.477 34.8592 173.831 35.7156C172.185 36.572 170.309 37.0002 168.202 37.0002C165.865 37.0002 163.725 36.4073 161.783 35.2215C159.841 34.0028 158.294 32.3229 157.142 30.1819C156.023 28.0079 155.463 25.554 155.463 22.8201ZM177.732 22.9189C177.732 21.0414 177.337 19.411 176.547 18.0275C175.789 16.6441 174.786 15.5901 173.535 14.8654C172.284 14.1408 170.934 13.7785 169.486 13.7785C168.038 13.7785 166.688 14.1408 165.437 14.8654C164.186 15.5571 163.166 16.5947 162.376 17.9781C161.619 19.3286 161.24 20.9426 161.24 22.8201C161.24 24.6976 161.619 26.3445 162.376 27.7609C163.166 29.1773 164.186 30.2642 165.437 31.0218C166.721 31.7465 168.07 32.1088 169.486 32.1088C170.934 32.1088 172.284 31.7465 173.535 31.0218C174.786 30.2972 175.789 29.2431 176.547 27.8597C177.337 26.4434 177.732 24.7964 177.732 22.9189ZM209.714 36.5555L196.432 21.1897V36.5555H190.803V2.217H196.432V17.8793L209.763 2.217H216.824L201.912 19.411L217.071 36.5555H209.714ZM246.687 9.33175V36.5555H241.058V33.344C240.169 34.4639 239 35.3533 237.552 36.012C236.137 36.6379 234.623 36.9508 233.01 36.9508C230.87 36.9508 228.944 36.5061 227.233 35.6168C225.554 34.7274 224.221 33.4099 223.233 31.6641C222.279 29.9184 221.801 27.8103 221.801 25.3399V9.33175H227.381V24.5C227.381 26.9374 227.99 28.8149 229.208 30.1325C230.426 31.4171 232.088 32.0594 234.195 32.0594C236.301 32.0594 237.964 31.4171 239.182 30.1325C240.432 28.8149 241.058 26.9374 241.058 24.5V9.33175H246.687Z" fill="#263238"/>
</svg>
