<svg width="191" height="29" viewBox="0 0 191 29" fill="none" xmlns="http://www.w3.org/2000/svg">
<path id="Vector" d="M14.2699 14.7015C15.702 14.9574 16.9167 15.7123 17.9141 16.9663C18.9114 18.2202 19.4101 19.6404 19.4101 21.227C19.4101 22.5833 19.0521 23.8116 18.336 24.912C17.6455 25.9868 16.6354 26.8441 15.3056 27.4838C13.9758 28.098 12.4286 28.4051 10.664 28.4051H0V1.72733H10.1654C11.9811 1.72733 13.541 2.03441 14.8453 2.64857C16.1495 3.26274 17.1341 4.09443 17.799 5.14362C18.4639 6.16723 18.7963 7.31877 18.7963 8.59828C18.7963 10.1337 18.3872 11.4132 17.5688 12.4368C16.7505 13.4604 15.6508 14.2153 14.2699 14.7015ZM4.37303 12.9358H9.78177C11.2139 12.9358 12.3263 12.6159 13.1191 11.9762C13.9374 11.3108 14.3466 10.364 14.3466 9.13567C14.3466 7.93294 13.9374 6.99891 13.1191 6.33356C12.3263 5.64263 11.2139 5.29716 9.78177 5.29716H4.37303V12.9358ZM10.2804 24.8352C11.7637 24.8352 12.9273 24.477 13.7712 23.7604C14.6151 23.0439 15.0371 22.0459 15.0371 20.7664C15.0371 19.4613 14.5895 18.4249 13.6945 17.6572C12.7994 16.8895 11.6103 16.5056 10.127 16.5056H4.37303V24.8352H10.2804ZM22.7045 17.734C22.7045 15.61 23.1393 13.7291 24.0088 12.0913C24.9038 10.4536 26.1058 9.18686 27.6146 8.29121C29.149 7.36996 30.8368 6.90933 32.6781 6.90933C34.3404 6.90933 35.7853 7.24201 37.0128 7.90735C38.2659 8.54711 39.2632 9.3532 40.0048 10.3256V7.25481H44.4162V28.4051H40.0048V25.2575C39.2632 26.2555 38.2531 27.0872 36.9744 27.7525C35.6958 28.4179 34.2381 28.7505 32.6014 28.7505C30.7857 28.7505 29.1234 28.2899 27.6146 27.3687C26.1058 26.4218 24.9038 25.1167 24.0088 23.4534C23.1393 21.7644 22.7045 19.858 22.7045 17.734ZM40.0048 17.8107C40.0048 16.3521 39.698 15.0854 39.0842 14.0106C38.496 12.9358 37.716 12.1169 36.7443 11.5539C35.7725 10.991 34.724 10.7095 33.5988 10.7095C32.4735 10.7095 31.425 10.991 30.4532 11.5539C29.4815 12.0913 28.6887 12.8974 28.0749 13.9722C27.4868 15.0214 27.1927 16.2753 27.1927 17.734C27.1927 19.1926 27.4868 20.4721 28.0749 21.5725C28.6887 22.6729 29.4815 23.5173 30.4532 24.1059C31.4506 24.6689 32.4991 24.9504 33.5988 24.9504C34.724 24.9504 35.7725 24.6689 36.7443 24.1059C37.716 23.5429 38.496 22.724 39.0842 21.6493C39.698 20.5489 40.0048 19.2694 40.0048 17.8107ZM61.0926 6.90933C62.7037 6.90933 64.1358 7.2548 65.3889 7.94573C66.6676 8.63667 67.665 9.66028 68.381 11.0166C69.1226 12.3728 69.4934 14.0106 69.4934 15.9299V28.4051H65.1588V16.5824C65.1588 14.6887 64.6857 13.2429 63.7395 12.2449C62.7933 11.2213 61.5018 10.7095 59.8651 10.7095C58.2284 10.7095 56.9242 11.2213 55.9524 12.2449C55.0062 13.2429 54.5331 14.6887 54.5331 16.5824V28.4051H50.1601V0H54.5331V9.71146C55.2747 8.8158 56.2081 8.12487 57.3334 7.63866C58.4842 7.15245 59.7372 6.90933 61.0926 6.90933ZM73.6137 17.734C73.6137 15.61 74.0484 13.7291 74.9179 12.0913C75.813 10.4536 77.0149 9.18686 78.5237 8.29121C80.0581 7.36996 81.7459 6.90933 83.5872 6.90933C85.2495 6.90933 86.6944 7.24201 87.9219 7.90735C89.175 8.54711 90.1723 9.3532 90.9139 10.3256V7.25481H95.3253V28.4051H90.9139V25.2575C90.1723 26.2555 89.1622 27.0872 87.8835 27.7525C86.6049 28.4179 85.1472 28.7505 83.5105 28.7505C81.6948 28.7505 80.0325 28.2899 78.5237 27.3687C77.0149 26.4218 75.813 25.1167 74.9179 23.4534C74.0484 21.7644 73.6137 19.858 73.6137 17.734ZM90.9139 17.8107C90.9139 16.3521 90.6071 15.0854 89.9933 14.0106C89.4051 12.9358 88.6251 12.1169 87.6534 11.5539C86.6816 10.991 85.6331 10.7095 84.5079 10.7095C83.3826 10.7095 82.3341 10.991 81.3623 11.5539C80.3906 12.0913 79.5978 12.8974 78.984 13.9722C78.3959 15.0214 78.1018 16.2753 78.1018 17.734C78.1018 19.1926 78.3959 20.4721 78.984 21.5725C79.5978 22.6729 80.3906 23.5173 81.3623 24.1059C82.3597 24.6689 83.4082 24.9504 84.5079 24.9504C85.6331 24.9504 86.6816 24.6689 87.6534 24.1059C88.6251 23.5429 89.4051 22.724 89.9933 21.6493C90.6071 20.5489 90.9139 19.2694 90.9139 17.8107ZM108.741 28.7505C107.079 28.7505 105.583 28.4562 104.253 27.8677C102.949 27.2535 101.913 26.4346 101.146 25.411C100.379 24.3618 99.9695 23.1975 99.9184 21.918H104.445C104.522 22.8136 104.944 23.5685 105.711 24.1827C106.503 24.7712 107.488 25.0655 108.664 25.0655C109.892 25.0655 110.838 24.8352 111.503 24.3746C112.194 23.8884 112.539 23.2742 112.539 22.5321C112.539 21.7388 112.155 21.1502 111.388 20.7664C110.646 20.3825 109.457 19.9603 107.821 19.4997C106.235 19.0646 104.944 18.6424 103.946 18.233C102.949 17.8235 102.079 17.1966 101.338 16.3521C100.622 15.5076 100.264 14.3944 100.264 13.0126C100.264 11.8866 100.596 10.863 101.261 9.94177C101.926 8.99494 102.872 8.25281 104.1 7.71542C105.353 7.17803 106.785 6.90933 108.396 6.90933C110.8 6.90933 112.731 7.52349 114.188 8.75182C115.671 9.95456 116.464 11.6051 116.567 13.7035H112.194C112.117 12.7567 111.733 12.0018 111.043 11.4388C110.352 10.8758 109.419 10.5943 108.242 10.5943C107.092 10.5943 106.209 10.8118 105.596 11.2469C104.982 11.6819 104.675 12.2577 104.675 12.9742C104.675 13.5372 104.88 14.0106 105.289 14.3945C105.698 14.7783 106.197 15.0854 106.785 15.3157C107.373 15.5204 108.242 15.7891 109.393 16.1218C110.928 16.5312 112.181 16.9535 113.153 17.3885C114.15 17.7979 115.007 18.4121 115.723 19.231C116.439 20.0499 116.809 21.1374 116.835 22.4937C116.835 23.6965 116.503 24.7712 115.838 25.7181C115.173 26.6649 114.227 27.407 112.999 27.9444C111.797 28.4818 110.378 28.7505 108.741 28.7505ZM120.103 17.734C120.103 15.61 120.537 13.7291 121.407 12.0913C122.302 10.4536 123.504 9.18686 125.013 8.29121C126.547 7.36996 128.235 6.90933 130.076 6.90933C131.738 6.90933 133.183 7.24201 134.411 7.90735C135.664 8.54711 136.661 9.3532 137.403 10.3256V7.25481H141.814V28.4051H137.403V25.2575C136.661 26.2555 135.651 27.0872 134.372 27.7525C133.094 28.4179 131.636 28.7505 129.999 28.7505C128.184 28.7505 126.521 28.2899 125.013 27.3687C123.504 26.4218 122.302 25.1167 121.407 23.4534C120.537 21.7644 120.103 19.858 120.103 17.734ZM137.403 17.8107C137.403 16.3521 137.096 15.0854 136.482 14.0106C135.894 12.9358 135.114 12.1169 134.142 11.5539C133.171 10.991 132.122 10.7095 130.997 10.7095C129.872 10.7095 128.823 10.991 127.851 11.5539C126.879 12.0913 126.087 12.8974 125.473 13.9722C124.885 15.0214 124.591 16.2753 124.591 17.734C124.591 19.1926 124.885 20.4721 125.473 21.5725C126.087 22.6729 126.879 23.5173 127.851 24.1059C128.849 24.6689 129.897 24.9504 130.997 24.9504C132.122 24.9504 133.171 24.6689 134.142 24.1059C135.114 23.5429 135.894 22.724 136.482 21.6493C137.096 20.5489 137.403 19.2694 137.403 17.8107ZM162.25 28.4051L151.931 16.4673V28.4051H147.558V1.72733H151.931V13.8954L162.288 1.72733H167.774L156.189 15.0854L167.966 28.4051H162.25ZM190.974 7.25481V28.4051H186.601V25.91C185.911 26.7801 185.003 27.471 183.878 27.9828C182.778 28.469 181.602 28.7121 180.349 28.7121C178.686 28.7121 177.19 28.3667 175.86 27.6757C174.556 26.9848 173.521 25.9612 172.753 24.6049C172.012 23.2486 171.641 21.6109 171.641 19.6916V7.25481H175.976V19.0391C175.976 20.9327 176.449 22.3914 177.395 23.415C178.341 24.413 179.633 24.912 181.269 24.912C182.906 24.912 184.197 24.413 185.144 23.415C186.115 22.3914 186.601 20.9327 186.601 19.0391V7.25481H190.974Z" fill="white"/>
</svg>
